ffmpeg started on 2025-03-25 at 15:37:51
Report written to "D:\Convert\FFMetrics\reports\vmaf_report-6.txt"
Log level: 32
Command line:
ffmpeg -hide_banner -nostdin -r 24000/1001 -i "G:\\\xc0\xed\xe8\xec\xe5\\\xce\xed\xe3\xee\xe8\xed\xe3\xe8\\!_35_\xcb\xe5\xf2\xee_2024\\DreamCast\\\xc0\xeb\xff \xe8\xed\xee\xe3\xe4\xe0 \xea\xee\xea\xe5\xf2\xed\xe8\xf7\xe0\xe5\xf2 \xf1\xee \xec\xed\xee\xe9 \xef\xee-\xf0\xf3\xf1\xf1\xea\xe8\\[DC] Roshidere - 08_Telegram_HEVC.mkv" -r 24000/1001 -i "G:\\\xc0\xed\xe8\xec\xe5\\\xce\xed\xe3\xee\xe8\xed\xe3\xe8\\!_35_\xcb\xe5\xf2\xee_2024\\DreamCast\\\xc0\xeb\xff \xe8\xed\xee\xe3\xe4\xe0 \xea\xee\xea\xe5\xf2\xed\xe8\xf7\xe0\xe5\xf2 \xf1\xee \xec\xed\xee\xe9 \xef\xee-\xf0\xf3\xf1\xf1\xea\xe8\\[DC] Roshidere - 08_Telegram.mp4" -lavfi "[0:v]settb=AVTB,setpts=PTS-STARTPTS,format=pix_fmts=yuv420p10,fps=24000/1001,scale=1920:1080:flags=bicubic[main];[1:v]settb=AVTB,setpts=PTS-STARTPTS,format=pix_fmts=yuv420p,fps=24000/1001,scale=1920:1080:flags=bicubic[ref];[main][ref]libvmaf=eof_action=endall:log_path='D\\:/Convert/FFMetrics/logs/vmaf_logfile-6.txt':n_threads=32:pool=Mean:model=version=vmaf_v0.6.1" -f null -
Input #0, matroska,webm, from 'G:\Аниме\Онгоинги\!_35_Лето_2024\DreamCast\Аля иногда кокетничает со мной по-русски\[DC] Roshidere - 08_Telegram_HEVC.mkv':
  Metadata:
    COMPATIBLE_BRANDS: isomiso2avc1mp41
    MAJOR_BRAND     : isom
    MINOR_VERSION   : 512
    ENCODER         : Lavf61.7.100
  Duration: 00:24:17.03, start: -0.021000, bitrate: 727 kb/s
  Stream #0:0: Video: hevc (Main 10), yuv420p10le(tv, bt709, progressive), 1920x1080 [SAR 1:1 DAR 16:9], 23.98 fps, 23.98 tbr, 1k tbn (default)
      Metadata:
        HANDLER_NAME    : VideoHandler
        VENDOR_ID       : [0][0][0][0]
        ENCODER         : Lavc61.19.100 libx265
        BPS             : 530024
        DURATION        : 00:24:16.496708333
        NUMBER_OF_FRAMES: 34921
        NUMBER_OF_BYTES : 96497338
        _STATISTICS_WRITING_APP: mkvpropedit v66.0.0 ('Josie') 64-bit
        _STATISTICS_WRITING_DATE_UTC: 2025-03-21 10:51:19
        _STATISTICS_TAGS: BPS DURATION NUMBER_OF_FRAMES NUMBER_OF_BYTES
  Stream #0:1: Audio: aac (LC), 48000 Hz, stereo, fltp (default)
      Metadata:
        HANDLER_NAME    : SoundHandler
        VENDOR_ID       : [0][0][0][0]
        ENCODER         : Lavc61.19.100 aac
        BPS             : 193479
        DURATION        : 00:24:17.024000000
        NUMBER_OF_FRAMES: 68299
        NUMBER_OF_BYTES : 35238107
        _STATISTICS_WRITING_APP: mkvpropedit v66.0.0 ('Josie') 64-bit
        _STATISTICS_WRITING_DATE_UTC: 2025-03-21 10:51:19
        _STATISTICS_TAGS: BPS DURATION NUMBER_OF_FRAMES NUMBER_OF_BYTES
Input #1, mov,mp4,m4a,3gp,3g2,mj2, from 'G:\Аниме\Онгоинги\!_35_Лето_2024\DreamCast\Аля иногда кокетничает со мной по-русски\[DC] Roshidere - 08_Telegram.mp4':
  Metadata:
    major_brand     : isom
    minor_version   : 512
    compatible_brands: isomiso2avc1mp41
    encoder         : Lavf60.16.100
  Duration: 00:24:16.99, start: 0.000000, bitrate: 3682 kb/s
  Stream #1:0[0x1](und): Video: h264 (High) (avc1 / 0x31637661), yuv420p(tv, bt709, progressive), 1920x1080 [SAR 1:1 DAR 16:9], 3536 kb/s, 23.98 fps, 23.98 tbr, 24k tbn (default)
      Metadata:
        handler_name    : VideoHandler
        vendor_id       : [0][0][0][0]
        encoder         : Lavc60.31.102 h264_qsv
  Stream #1:1[0x2](und): Audio: aac (HE-AACv2) (mp4a / 0x6134706D), 48000 Hz, stereo, fltp, 144 kb/s (default)
      Metadata:
        handler_name    : SoundHandler
        vendor_id       : [0][0][0][0]
Stream mapping:
  Stream #0:0 (hevc) -> settb:default
  Stream #1:0 (h264) -> settb:default
  libvmaf:default -> Stream #0:0 (wrapped_avframe)
  Stream #0:1 -> #0:1 (aac (native) -> pcm_s16le (native))
Output #0, null, to 'pipe:':
  Metadata:
    COMPATIBLE_BRANDS: isomiso2avc1mp41
    MAJOR_BRAND     : isom
    MINOR_VERSION   : 512
    encoder         : Lavf61.7.100
  Stream #0:0: Video: wrapped_avframe, yuv420p10le(tv, bt709, progressive), 1920x1080 [SAR 1:1 DAR 16:9], q=2-31, 200 kb/s, 23.98 fps, 23.98 tbn
      Metadata:
        encoder         : Lavc61.19.100 wrapped_avframe
  Stream #0:1: Audio: pcm_s16le, 48000 Hz, stereo, s16, 1536 kb/s (default)
      Metadata:
        HANDLER_NAME    : SoundHandler
        VENDOR_ID       : [0][0][0][0]
        _STATISTICS_TAGS: BPS DURATION NUMBER_OF_FRAMES NUMBER_OF_BYTES
        BPS             : 193479
        DURATION        : 00:24:17.024000000
        NUMBER_OF_FRAMES: 68299
        NUMBER_OF_BYTES : 35238107
        _STATISTICS_WRITING_APP: mkvpropedit v66.0.0 ('Josie') 64-bit
        _STATISTICS_WRITING_DATE_UTC: 2025-03-21 10:51:19
        encoder         : Lavc61.19.100 pcm_s16le
frame=   39 fps=0.0 q=-0.0 size=N/A time=00:00:01.62 bitrate=N/A speed=3.14x    frame=   84 fps= 82 q=-0.0 size=N/A time=00:00:03.50 bitrate=N/A speed= 3.4x    frame=  130 fps= 84 q=-0.0 size=N/A time=00:00:05.42 bitrate=N/A speed=3.52x    frame=  173 fps= 84 q=-0.0 size=N/A time=00:00:07.21 bitrate=N/A speed= 3.5x    frame=  218 fps= 85 q=-0.0 size=N/A time=00:00:09.09 bitrate=N/A speed=3.53x    frame=  265 fps= 85 q=-0.0 size=N/A time=00:00:11.05 bitrate=N/A speed=3.57x    frame=  308 fps= 85 q=-0.0 size=N/A time=00:00:12.84 bitrate=N/A speed=3.56x    frame=  355 fps= 86 q=-0.0 size=N/A time=00:00:14.80 bitrate=N/A speed= 3.6x    frame=  400 fps= 86 q=-0.0 size=N/A time=00:00:16.68 bitrate=N/A speed=3.59x    frame=  445 fps= 86 q=-0.0 size=N/A time=00:00:18.56 bitrate=N/A speed= 3.6x    frame=  490 fps= 87 q=-0.0 size=N/A time=00:00:20.43 bitrate=N/A speed=3.61x    frame=  536 fps= 87 q=-0.0 size=N/A time=00:00:22.35 bitrate=N/A speed=3.61x    frame=  582 fps= 87 q=-0.0 size=N/A time=00:00:24.27 bitrate=N/A speed=3.62x    frame=  628 fps= 87 q=-0.0 size=N/A time=00:00:26.19 bitrate=N/A speed=3.63x    frame=  675 fps= 87 q=-0.0 size=N/A time=00:00:28.15 bitrate=N/A speed=3.64x    frame=  719 fps= 87 q=-0.0 size=N/A time=00:00:29.98 bitrate=N/A speed=3.64x    frame=  763 fps= 87 q=-0.0 size=N/A time=00:00:31.82 bitrate=N/A speed=3.63x    frame=  807 fps= 87 q=-0.0 size=N/A time=00:00:33.65 bitrate=N/A speed=3.63x    frame=  849 fps= 87 q=-0.0 size=N/A time=00:00:35.41 bitrate=N/A speed=3.62x    frame=  894 fps= 87 q=-0.0 size=N/A time=00:00:37.28 bitrate=N/A speed=3.61x    frame=  936 fps= 86 q=-0.0 size=N/A time=00:00:39.03 bitrate=N/A speed=3.61x    frame=  980 fps= 86 q=-0.0 size=N/A time=00:00:40.87 bitrate=N/A speed=3.61x    frame= 1025 fps= 86 q=-0.0 size=N/A time=00:00:42.75 bitrate=N/A speed= 3.6x    frame= 1068 fps= 86 q=-0.0 size=N/A time=00:00:44.54 bitrate=N/A speed= 3.6x    frame= 1114 fps= 86 q=-0.0 size=N/A time=00:00:46.46 bitrate=N/A speed= 3.6x    frame= 1157 fps= 86 q=-0.0 size=N/A time=00:00:48.25 bitrate=N/A speed= 3.6x    frame= 1203 fps= 86 q=-0.0 size=N/A time=00:00:50.17 bitrate=N/A speed=3.61x    frame= 1248 fps= 86 q=-0.0 size=N/A time=00:00:52.05 bitrate=N/A speed= 3.6x    frame= 1292 fps= 86 q=-0.0 size=N/A time=00:00:53.88 bitrate=N/A speed= 3.6x    frame= 1336 fps= 86 q=-0.0 size=N/A time=00:00:55.72 bitrate=N/A speed= 3.6x    frame= 1382 fps= 86 q=-0.0 size=N/A time=00:00:57.64 bitrate=N/A speed= 3.6x    frame= 1426 fps= 86 q=-0.0 size=N/A time=00:00:59.47 bitrate=N/A speed= 3.6x    frame= 1468 fps= 86 q=-0.0 size=N/A time=00:01:01.22 bitrate=N/A speed= 3.6x    frame= 1513 fps= 86 q=-0.0 size=N/A time=00:01:03.10 bitrate=N/A speed= 3.6x    frame= 1556 fps= 86 q=-0.0 size=N/A time=00:01:04.89 bitrate=N/A speed= 3.6x    frame= 1598 fps= 86 q=-0.0 size=N/A time=00:01:06.64 bitrate=N/A speed=3.59x    frame= 1642 fps= 86 q=-0.0 size=N/A time=00:01:08.48 bitrate=N/A speed=3.59x    frame= 1685 fps= 86 q=-0.0 size=N/A time=00:01:10.27 bitrate=N/A speed=3.59x    frame= 1726 fps= 86 q=-0.0 size=N/A time=00:01:11.98 bitrate=N/A speed=3.58x    frame= 1771 fps= 86 q=-0.0 size=N/A time=00:01:13.86 bitrate=N/A speed=3.58x    frame= 1816 fps= 86 q=-0.0 size=N/A time=00:01:15.74 bitrate=N/A speed=3.58x    frame= 1858 fps= 86 q=-0.0 size=N/A time=00:01:17.49 bitrate=N/A speed=3.58x    frame= 1902 fps= 86 q=-0.0 size=N/A time=00:01:19.32 bitrate=N/A speed=3.57x    frame= 1944 fps= 86 q=-0.0 size=N/A time=00:01:21.08 bitrate=N/A speed=3.57x    frame= 1987 fps= 86 q=-0.0 size=N/A time=00:01:22.87 bitrate=N/A speed=3.57x    frame= 2031 fps= 86 q=-0.0 size=N/A time=00:01:24.70 bitrate=N/A speed=3.57x    frame= 2075 fps= 86 q=-0.0 size=N/A time=00:01:26.54 bitrate=N/A speed=3.57x    frame= 2117 fps= 85 q=-0.0 size=N/A time=00:01:28.29 bitrate=N/A speed=3.57x    frame= 2161 fps= 85 q=-0.0 size=N/A time=00:01:30.13 bitrate=N/A speed=3.57x    frame= 2206 fps= 86 q=-0.0 size=N/A time=00:01:32.00 bitrate=N/A speed=3.57x    frame= 2251 fps= 86 q=-0.0 size=N/A time=00:01:33.88 bitrate=N/A speed=3.57x    frame= 2297 fps= 86 q=-0.0 size=N/A time=00:01:35.80 bitrate=N/A speed=3.57x    frame= 2339 fps= 86 q=-0.0 size=N/A time=00:01:37.55 bitrate=N/A speed=3.57x    frame= 2385 fps= 86 q=-0.0 size=N/A time=00:01:39.47 bitrate=N/A speed=3.57x    frame= 2426 fps= 86 q=-0.0 size=N/A time=00:01:41.18 bitrate=N/A speed=3.57x    frame= 2471 fps= 86 q=-0.0 size=N/A time=00:01:43.06 bitrate=N/A speed=3.57x    frame= 2515 fps= 86 q=-0.0 size=N/A time=00:01:44.89 bitrate=N/A speed=3.57x    frame= 2559 fps= 86 q=-0.0 size=N/A time=00:01:46.73 bitrate=N/A speed=3.57x    frame= 2603 fps= 86 q=-0.0 size=N/A time=00:01:48.56 bitrate=N/A speed=3.57x    frame= 2648 fps= 86 q=-0.0 size=N/A time=00:01:50.44 bitrate=N/A speed=3.57x    frame= 2692 fps= 86 q=-0.0 size=N/A time=00:01:52.27 bitrate=N/A speed=3.57x    frame= 2739 fps= 86 q=-0.0 size=N/A time=00:01:54.23 bitrate=N/A speed=3.57x    frame= 2783 fps= 86 q=-0.0 size=N/A time=00:01:56.07 bitrate=N/A speed=3.57x    frame= 2829 fps= 86 q=-0.0 size=N/A time=00:01:57.99 bitrate=N/A speed=3.57x    frame= 2870 fps= 86 q=-0.0 size=N/A time=00:01:59.70 bitrate=N/A speed=3.57x    frame= 2915 fps= 86 q=-0.0 size=N/A time=00:02:01.57 bitrate=N/A speed=3.57x    frame= 2959 fps= 86 q=-0.0 size=N/A time=00:02:03.41 bitrate=N/A speed=3.57x    frame= 3004 fps= 86 q=-0.0 size=N/A time=00:02:05.29 bitrate=N/A speed=3.57x    frame= 3048 fps= 86 q=-0.0 size=N/A time=00:02:07.12 bitrate=N/A speed=3.57x    frame= 3092 fps= 86 q=-0.0 size=N/A time=00:02:08.96 bitrate=N/A speed=3.57x    frame= 3134 fps= 86 q=-0.0 size=N/A time=00:02:10.71 bitrate=N/A speed=3.57x    frame= 3179 fps= 86 q=-0.0 size=N/A time=00:02:12.59 bitrate=N/A speed=3.57x    frame= 3222 fps= 86 q=-0.0 size=N/A time=00:02:14.38 bitrate=N/A speed=3.57x    frame= 3269 fps= 86 q=-0.0 size=N/A time=00:02:16.34 bitrate=N/A speed=3.57x    frame= 3312 fps= 86 q=-0.0 size=N/A time=00:02:18.13 bitrate=N/A speed=3.57x    frame= 3356 fps= 86 q=-0.0 size=N/A time=00:02:19.97 bitrate=N/A speed=3.57x    frame= 3403 fps= 86 q=-0.0 size=N/A time=00:02:21.93 bitrate=N/A speed=3.57x    frame= 3447 fps= 86 q=-0.0 size=N/A time=00:02:23.76 bitrate=N/A speed=3.57x    frame= 3491 fps= 86 q=-0.0 size=N/A time=00:02:25.60 bitrate=N/A speed=3.57x    frame= 3536 fps= 86 q=-0.0 size=N/A time=00:02:27.48 bitrate=N/A speed=3.57x    frame= 3581 fps= 86 q=-0.0 size=N/A time=00:02:29.35 bitrate=N/A speed=3.57x    frame= 3625 fps= 86 q=-0.0 size=N/A time=00:02:31.19 bitrate=N/A speed=3.57x    frame= 3666 fps= 86 q=-0.0 size=N/A time=00:02:32.90 bitrate=N/A speed=3.57x    frame= 3710 fps= 86 q=-0.0 size=N/A time=00:02:34.73 bitrate=N/A speed=3.57x    frame= 3754 fps= 86 q=-0.0 size=N/A time=00:02:36.57 bitrate=N/A speed=3.57x    frame= 3797 fps= 86 q=-0.0 size=N/A time=00:02:38.36 bitrate=N/A speed=3.57x    frame= 3840 fps= 86 q=-0.0 size=N/A time=00:02:40.16 bitrate=N/A speed=3.57x    frame= 3883 fps= 85 q=-0.0 size=N/A time=00:02:41.95 bitrate=N/A speed=3.57x    frame= 3926 fps= 85 q=-0.0 size=N/A time=00:02:43.74 bitrate=N/A speed=3.56x    frame= 3969 fps= 85 q=-0.0 size=N/A time=00:02:45.54 bitrate=N/A speed=3.56x    frame= 4012 fps= 85 q=-0.0 size=N/A time=00:02:47.33 bitrate=N/A speed=3.56x    frame= 4054 fps= 85 q=-0.0 size=N/A time=00:02:49.08 bitrate=N/A speed=3.56x    frame= 4097 fps= 85 q=-0.0 size=N/A time=00:02:50.87 bitrate=N/A speed=3.56x    frame= 4141 fps= 85 q=-0.0 size=N/A time=00:02:52.71 bitrate=N/A speed=3.56x    frame= 4186 fps= 85 q=-0.0 size=N/A time=00:02:54.59 bitrate=N/A speed=3.56x    frame= 4229 fps= 85 q=-0.0 size=N/A time=00:02:56.38 bitrate=N/A speed=3.56x    frame= 4273 fps= 85 q=-0.0 size=N/A time=00:02:58.21 bitrate=N/A speed=3.56x    frame= 4318 fps= 85 q=-0.0 size=N/A time=00:03:00.09 bitrate=N/A speed=3.56x    frame= 4361 fps= 85 q=-0.0 size=N/A time=00:03:01.89 bitrate=N/A speed=3.56x    frame= 4407 fps= 85 q=-0.0 size=N/A time=00:03:03.80 bitrate=N/A speed=3.56x    frame= 4450 fps= 85 q=-0.0 size=N/A time=00:03:05.60 bitrate=N/A speed=3.56x    frame= 4494 fps= 85 q=-0.0 size=N/A time=00:03:07.43 bitrate=N/A speed=3.56x    frame= 4540 fps= 85 q=-0.0 size=N/A time=00:03:09.35 bitrate=N/A speed=3.56x    frame= 4584 fps= 85 q=-0.0 size=N/A time=00:03:11.19 bitrate=N/A speed=3.56x    frame= 4628 fps= 85 q=-0.0 size=N/A time=00:03:13.02 bitrate=N/A speed=3.56x    frame= 4672 fps= 85 q=-0.0 size=N/A time=00:03:14.86 bitrate=N/A speed=3.56x    frame= 4717 fps= 85 q=-0.0 size=N/A time=00:03:16.73 bitrate=N/A speed=3.56x    frame= 4761 fps= 85 q=-0.0 size=N/A time=00:03:18.57 bitrate=N/A speed=3.56x    frame= 4804 fps= 85 q=-0.0 size=N/A time=00:03:20.36 bitrate=N/A speed=3.56x    frame= 4848 fps= 85 q=-0.0 size=N/A time=00:03:22.20 bitrate=N/A speed=3.56x    frame= 4892 fps= 85 q=-0.0 size=N/A time=00:03:24.03 bitrate=N/A speed=3.56x    frame= 4933 fps= 85 q=-0.0 size=N/A time=00:03:25.74 bitrate=N/A speed=3.56x    frame= 4978 fps= 85 q=-0.0 size=N/A time=00:03:27.62 bitrate=N/A speed=3.56x    frame= 5021 fps= 85 q=-0.0 size=N/A time=00:03:29.41 bitrate=N/A speed=3.56x    frame= 5063 fps= 85 q=-0.0 size=N/A time=00:03:31.16 bitrate=N/A speed=3.56x    frame= 5106 fps= 85 q=-0.0 size=N/A time=00:03:32.96 bitrate=N/A speed=3.56x    frame= 5151 fps= 85 q=-0.0 size=N/A time=00:03:34.83 bitrate=N/A speed=3.56x    frame= 5194 fps= 85 q=-0.0 size=N/A time=00:03:36.63 bitrate=N/A speed=3.56x    frame= 5239 fps= 85 q=-0.0 size=N/A time=00:03:38.50 bitrate=N/A speed=3.56x    frame= 5285 fps= 85 q=-0.0 size=N/A time=00:03:40.42 bitrate=N/A speed=3.56x    frame= 5328 fps= 85 q=-0.0 size=N/A time=00:03:42.22 bitrate=N/A speed=3.56x    frame= 5375 fps= 85 q=-0.0 size=N/A time=00:03:44.18 bitrate=N/A speed=3.56x    frame= 5419 fps= 85 q=-0.0 size=N/A time=00:03:46.01 bitrate=N/A speed=3.56x    frame= 5463 fps= 85 q=-0.0 size=N/A time=00:03:47.85 bitrate=N/A speed=3.56x    frame= 5508 fps= 85 q=-0.0 size=N/A time=00:03:49.72 bitrate=N/A speed=3.56x    frame= 5552 fps= 85 q=-0.0 size=N/A time=00:03:51.56 bitrate=N/A speed=3.56x    frame= 5596 fps= 85 q=-0.0 size=N/A time=00:03:53.39 bitrate=N/A speed=3.56x    frame= 5637 fps= 85 q=-0.0 size=N/A time=00:03:55.10 bitrate=N/A speed=3.56x    frame= 5682 fps= 85 q=-0.0 size=N/A time=00:03:56.98 bitrate=N/A speed=3.56x    frame= 5725 fps= 85 q=-0.0 size=N/A time=00:03:58.78 bitrate=N/A speed=3.56x    frame= 5767 fps= 85 q=-0.0 size=N/A time=00:04:00.53 bitrate=N/A speed=3.56x    frame= 5810 fps= 85 q=-0.0 size=N/A time=00:04:02.32 bitrate=N/A speed=3.56x    frame= 5854 fps= 85 q=-0.0 size=N/A time=00:04:04.16 bitrate=N/A speed=3.56x    frame= 5897 fps= 85 q=-0.0 size=N/A time=00:04:05.95 bitrate=N/A speed=3.56x    frame= 5944 fps= 85 q=-0.0 size=N/A time=00:04:07.91 bitrate=N/A speed=3.56x    frame= 5984 fps= 85 q=-0.0 size=N/A time=00:04:09.58 bitrate=N/A speed=3.56x    frame= 6029 fps= 85 q=-0.0 size=N/A time=00:04:11.45 bitrate=N/A speed=3.56x    frame= 6072 fps= 85 q=-0.0 size=N/A time=00:04:13.25 bitrate=N/A speed=3.56x    frame= 6114 fps= 85 q=-0.0 size=N/A time=00:04:15.00 bitrate=N/A speed=3.56x    frame= 6156 fps= 85 q=-0.0 size=N/A time=00:04:16.75 bitrate=N/A speed=3.55x    frame= 6200 fps= 85 q=-0.0 size=N/A time=00:04:18.59 bitrate=N/A speed=3.55x    frame= 6246 fps= 85 q=-0.0 size=N/A time=00:04:20.51 bitrate=N/A speed=3.56x    frame= 6290 fps= 85 q=-0.0 size=N/A time=00:04:22.34 bitrate=N/A speed=3.56x    frame= 6333 fps= 85 q=-0.0 size=N/A time=00:04:24.13 bitrate=N/A speed=3.56x    frame= 6374 fps= 85 q=-0.0 size=N/A time=00:04:25.84 bitrate=N/A speed=3.55x    frame= 6416 fps= 85 q=-0.0 size=N/A time=00:04:27.60 bitrate=N/A speed=3.55x    frame= 6461 fps= 85 q=-0.0 size=N/A time=00:04:29.47 bitrate=N/A speed=3.55x    frame= 6504 fps= 85 q=-0.0 size=N/A time=00:04:31.27 bitrate=N/A speed=3.55x    frame= 6547 fps= 85 q=-0.0 size=N/A time=00:04:33.06 bitrate=N/A speed=3.55x    frame= 6588 fps= 85 q=-0.0 size=N/A time=00:04:34.77 bitrate=N/A speed=3.55x    frame= 6630 fps= 85 q=-0.0 size=N/A time=00:04:36.52 bitrate=N/A speed=3.55x    frame= 6671 fps= 85 q=-0.0 size=N/A time=00:04:38.23 bitrate=N/A speed=3.55x    frame= 6715 fps= 85 q=-0.0 size=N/A time=00:04:40.07 bitrate=N/A speed=3.55x    frame= 6759 fps= 85 q=-0.0 size=N/A time=00:04:41.90 bitrate=N/A speed=3.55x    frame= 6802 fps= 85 q=-0.0 size=N/A time=00:04:43.70 bitrate=N/A speed=3.55x    frame= 6847 fps= 85 q=-0.0 size=N/A time=00:04:45.57 bitrate=N/A speed=3.55x    frame= 6890 fps= 85 q=-0.0 size=N/A time=00:04:47.37 bitrate=N/A speed=3.55x    frame= 6935 fps= 85 q=-0.0 size=N/A time=00:04:49.24 bitrate=N/A speed=3.55x    frame= 6977 fps= 85 q=-0.0 size=N/A time=00:04:50.99 bitrate=N/A speed=3.55x    frame= 7021 fps= 85 q=-0.0 size=N/A time=00:04:52.83 bitrate=N/A speed=3.55x    frame= 7065 fps= 85 q=-0.0 size=N/A time=00:04:54.66 bitrate=N/A speed=3.55x    frame= 7108 fps= 85 q=-0.0 size=N/A time=00:04:56.46 bitrate=N/A speed=3.55x    frame= 7151 fps= 85 q=-0.0 size=N/A time=00:04:58.25 bitrate=N/A speed=3.55x    frame= 7194 fps= 85 q=-0.0 size=N/A time=00:05:00.04 bitrate=N/A speed=3.55x    frame= 7238 fps= 85 q=-0.0 size=N/A time=00:05:01.88 bitrate=N/A speed=3.55x    frame= 7282 fps= 85 q=-0.0 size=N/A time=00:05:03.72 bitrate=N/A speed=3.55x    frame= 7328 fps= 85 q=-0.0 size=N/A time=00:05:05.63 bitrate=N/A speed=3.55x    frame= 7370 fps= 85 q=-0.0 size=N/A time=00:05:07.39 bitrate=N/A speed=3.55x    frame= 7413 fps= 85 q=-0.0 size=N/A time=00:05:09.18 bitrate=N/A speed=3.55x    frame= 7461 fps= 85 q=-0.0 size=N/A time=00:05:11.18 bitrate=N/A speed=3.55x    frame= 7504 fps= 85 q=-0.0 size=N/A time=00:05:12.97 bitrate=N/A speed=3.55x    frame= 7551 fps= 85 q=-0.0 size=N/A time=00:05:14.93 bitrate=N/A speed=3.55x    frame= 7594 fps= 85 q=-0.0 size=N/A time=00:05:16.73 bitrate=N/A speed=3.55x    frame= 7637 fps= 85 q=-0.0 size=N/A time=00:05:18.52 bitrate=N/A speed=3.55x    frame= 7681 fps= 85 q=-0.0 size=N/A time=00:05:20.36 bitrate=N/A speed=3.55x    frame= 7725 fps= 85 q=-0.0 size=N/A time=00:05:22.19 bitrate=N/A speed=3.55x    frame= 7769 fps= 85 q=-0.0 size=N/A time=00:05:24.03 bitrate=N/A speed=3.55x    frame= 7815 fps= 85 q=-0.0 size=N/A time=00:05:25.95 bitrate=N/A speed=3.55x    frame= 7859 fps= 85 q=-0.0 size=N/A time=00:05:27.78 bitrate=N/A speed=3.55x    frame= 7902 fps= 85 q=-0.0 size=N/A time=00:05:29.57 bitrate=N/A speed=3.55x    frame= 7949 fps= 85 q=-0.0 size=N/A time=00:05:31.53 bitrate=N/A speed=3.55x    frame= 7993 fps= 85 q=-0.0 size=N/A time=00:05:33.37 bitrate=N/A speed=3.55x    frame= 8036 fps= 85 q=-0.0 size=N/A time=00:05:35.16 bitrate=N/A speed=3.55x    frame= 8079 fps= 85 q=-0.0 size=N/A time=00:05:36.96 bitrate=N/A speed=3.55x    frame= 8123 fps= 85 q=-0.0 size=N/A time=00:05:38.79 bitrate=N/A speed=3.55x    frame= 8167 fps= 85 q=-0.0 size=N/A time=00:05:40.63 bitrate=N/A speed=3.55x    frame= 8211 fps= 85 q=-0.0 size=N/A time=00:05:42.46 bitrate=N/A speed=3.55x    frame= 8255 fps= 85 q=-0.0 size=N/A time=00:05:44.30 bitrate=N/A speed=3.55x    frame= 8301 fps= 85 q=-0.0 size=N/A time=00:05:46.22 bitrate=N/A speed=3.55x    frame= 8344 fps= 85 q=-0.0 size=N/A time=00:05:48.01 bitrate=N/A speed=3.55x    frame= 8387 fps= 85 q=-0.0 size=N/A time=00:05:49.80 bitrate=N/A speed=3.55x    frame= 8430 fps= 85 q=-0.0 size=N/A time=00:05:51.60 bitrate=N/A speed=3.55x    frame= 8476 fps= 85 q=-0.0 size=N/A time=00:05:53.51 bitrate=N/A speed=3.55x    frame= 8521 fps= 85 q=-0.0 size=N/A time=00:05:55.39 bitrate=N/A speed=3.55x    frame= 8566 fps= 85 q=-0.0 size=N/A time=00:05:57.27 bitrate=N/A speed=3.55x    frame= 8611 fps= 85 q=-0.0 size=N/A time=00:05:59.15 bitrate=N/A speed=3.55x    frame= 8653 fps= 85 q=-0.0 size=N/A time=00:06:00.90 bitrate=N/A speed=3.55x    frame= 8698 fps= 85 q=-0.0 size=N/A time=00:06:02.77 bitrate=N/A speed=3.55x    frame= 8740 fps= 85 q=-0.0 size=N/A time=00:06:04.53 bitrate=N/A speed=3.55x    frame= 8782 fps= 85 q=-0.0 size=N/A time=00:06:06.28 bitrate=N/A speed=3.55x    frame= 8826 fps= 85 q=-0.0 size=N/A time=00:06:08.11 bitrate=N/A speed=3.55x    frame= 8866 fps= 85 q=-0.0 size=N/A time=00:06:09.78 bitrate=N/A speed=3.55x    frame= 8911 fps= 85 q=-0.0 size=N/A time=00:06:11.66 bitrate=N/A speed=3.55x    frame= 8955 fps= 85 q=-0.0 size=N/A time=00:06:13.49 bitrate=N/A speed=3.55x    frame= 8999 fps= 85 q=-0.0 size=N/A time=00:06:15.33 bitrate=N/A speed=3.55x    frame= 9044 fps= 85 q=-0.0 size=N/A time=00:06:17.21 bitrate=N/A speed=3.55x    frame= 9088 fps= 85 q=-0.0 size=N/A time=00:06:19.04 bitrate=N/A speed=3.55x    frame= 9132 fps= 85 q=-0.0 size=N/A time=00:06:20.88 bitrate=N/A speed=3.55x    frame= 9177 fps= 85 q=-0.0 size=N/A time=00:06:22.75 bitrate=N/A speed=3.55x    frame= 9220 fps= 85 q=-0.0 size=N/A time=00:06:24.55 bitrate=N/A speed=3.55x    frame= 9263 fps= 85 q=-0.0 size=N/A time=00:06:26.34 bitrate=N/A speed=3.55x    frame= 9309 fps= 85 q=-0.0 size=N/A time=00:06:28.26 bitrate=N/A speed=3.55x    frame= 9350 fps= 85 q=-0.0 size=N/A time=00:06:29.97 bitrate=N/A speed=3.55x    frame= 9394 fps= 85 q=-0.0 size=N/A time=00:06:31.80 bitrate=N/A speed=3.55x    frame= 9437 fps= 85 q=-0.0 size=N/A time=00:06:33.60 bitrate=N/A speed=3.55x    frame= 9480 fps= 85 q=-0.0 size=N/A time=00:06:35.39 bitrate=N/A speed=3.55x    frame= 9522 fps= 85 q=-0.0 size=N/A time=00:06:37.14 bitrate=N/A speed=3.55x    frame= 9565 fps= 85 q=-0.0 size=N/A time=00:06:38.94 bitrate=N/A speed=3.55x    frame= 9609 fps= 85 q=-0.0 size=N/A time=00:06:40.77 bitrate=N/A speed=3.55x    frame= 9651 fps= 85 q=-0.0 size=N/A time=00:06:42.52 bitrate=N/A speed=3.55x    frame= 9695 fps= 85 q=-0.0 size=N/A time=00:06:44.36 bitrate=N/A speed=3.55x    frame= 9739 fps= 85 q=-0.0 size=N/A time=00:06:46.19 bitrate=N/A speed=3.55x    frame= 9782 fps= 85 q=-0.0 size=N/A time=00:06:48.03 bitrate=N/A speed=3.55x    frame= 9827 fps= 85 q=-0.0 size=N/A time=00:06:49.86 bitrate=N/A speed=3.55x    frame= 9868 fps= 85 q=-0.0 size=N/A time=00:06:51.57 bitrate=N/A speed=3.55x    frame= 9911 fps= 85 q=-0.0 size=N/A time=00:06:53.37 bitrate=N/A speed=3.55x    frame= 9955 fps= 85 q=-0.0 size=N/A time=00:06:55.20 bitrate=N/A speed=3.55x    frame= 9998 fps= 85 q=-0.0 size=N/A time=00:06:56.99 bitrate=N/A speed=3.55x    frame=10043 fps= 85 q=-0.0 size=N/A time=00:06:58.87 bitrate=N/A speed=3.55x    frame=10086 fps= 85 q=-0.0 size=N/A time=00:07:00.67 bitrate=N/A speed=3.55x    frame=10132 fps= 85 q=-0.0 size=N/A time=00:07:02.58 bitrate=N/A speed=3.55x    frame=10176 fps= 85 q=-0.0 size=N/A time=00:07:04.42 bitrate=N/A speed=3.55x    frame=10219 fps= 85 q=-0.0 size=N/A time=00:07:06.21 bitrate=N/A speed=3.55x    frame=10264 fps= 85 q=-0.0 size=N/A time=00:07:08.09 bitrate=N/A speed=3.55x    frame=10308 fps= 85 q=-0.0 size=N/A time=00:07:09.92 bitrate=N/A speed=3.55x    frame=10354 fps= 85 q=-0.0 size=N/A time=00:07:11.84 bitrate=N/A speed=3.55x    frame=10398 fps= 85 q=-0.0 size=N/A time=00:07:13.68 bitrate=N/A speed=3.55x    frame=10442 fps= 85 q=-0.0 size=N/A time=00:07:15.51 bitrate=N/A speed=3.55x    frame=10488 fps= 85 q=-0.0 size=N/A time=00:07:17.43 bitrate=N/A speed=3.55x    frame=10532 fps= 85 q=-0.0 size=N/A time=00:07:19.27 bitrate=N/A speed=3.55x    frame=10577 fps= 85 q=-0.0 size=N/A time=00:07:21.14 bitrate=N/A speed=3.55x    frame=10621 fps= 85 q=-0.0 size=N/A time=00:07:22.98 bitrate=N/A speed=3.55x    frame=10669 fps= 85 q=-0.0 size=N/A time=00:07:24.98 bitrate=N/A speed=3.55x    frame=10713 fps= 85 q=-0.0 size=N/A time=00:07:26.82 bitrate=N/A speed=3.55x    frame=10759 fps= 85 q=-0.0 size=N/A time=00:07:28.73 bitrate=N/A speed=3.55x    frame=10806 fps= 85 q=-0.0 size=N/A time=00:07:30.70 bitrate=N/A speed=3.55x    frame=10851 fps= 85 q=-0.0 size=N/A time=00:07:32.57 bitrate=N/A speed=3.55x    frame=10893 fps= 85 q=-0.0 size=N/A time=00:07:34.32 bitrate=N/A speed=3.55x    frame=10939 fps= 85 q=-0.0 size=N/A time=00:07:36.24 bitrate=N/A speed=3.55x    frame=10984 fps= 85 q=-0.0 size=N/A time=00:07:38.12 bitrate=N/A speed=3.55x    frame=11030 fps= 85 q=-0.0 size=N/A time=00:07:40.04 bitrate=N/A speed=3.55x    frame=11076 fps= 85 q=-0.0 size=N/A time=00:07:41.96 bitrate=N/A speed=3.55x    frame=11119 fps= 85 q=-0.0 size=N/A time=00:07:43.75 bitrate=N/A speed=3.55x    frame=11160 fps= 85 q=-0.0 size=N/A time=00:07:45.46 bitrate=N/A speed=3.55x    frame=11205 fps= 85 q=-0.0 size=N/A time=00:07:47.34 bitrate=N/A speed=3.55x    frame=11249 fps= 85 q=-0.0 size=N/A time=00:07:49.17 bitrate=N/A speed=3.55x    frame=11292 fps= 85 q=-0.0 size=N/A time=00:07:50.97 bitrate=N/A speed=3.55x    frame=11336 fps= 85 q=-0.0 size=N/A time=00:07:52.80 bitrate=N/A speed=3.55x    frame=11381 fps= 85 q=-0.0 size=N/A time=00:07:54.68 bitrate=N/A speed=3.55x    frame=11427 fps= 85 q=-0.0 size=N/A time=00:07:56.60 bitrate=N/A speed=3.55x    frame=11469 fps= 85 q=-0.0 size=N/A time=00:07:58.35 bitrate=N/A speed=3.55x    frame=11514 fps= 85 q=-0.0 size=N/A time=00:08:00.22 bitrate=N/A speed=3.55x    frame=11560 fps= 85 q=-0.0 size=N/A time=00:08:02.14 bitrate=N/A speed=3.55x    frame=11605 fps= 85 q=-0.0 size=N/A time=00:08:04.02 bitrate=N/A speed=3.55x    frame=11649 fps= 85 q=-0.0 size=N/A time=00:08:05.86 bitrate=N/A speed=3.55x    frame=11694 fps= 85 q=-0.0 size=N/A time=00:08:07.73 bitrate=N/A speed=3.55x    frame=11741 fps= 85 q=-0.0 size=N/A time=00:08:09.73 bitrate=N/A speed=3.56x    frame=11785 fps= 85 q=-0.0 size=N/A time=00:08:11.53 bitrate=N/A speed=3.56x    frame=11832 fps= 85 q=-0.0 size=N/A time=00:08:13.49 bitrate=N/A speed=3.56x    frame=11877 fps= 85 q=-0.0 size=N/A time=00:08:15.36 bitrate=N/A speed=3.56x    frame=11920 fps= 85 q=-0.0 size=N/A time=00:08:17.16 bitrate=N/A speed=3.56x    frame=11966 fps= 85 q=-0.0 size=N/A time=00:08:19.08 bitrate=N/A speed=3.56x    frame=12011 fps= 85 q=-0.0 size=N/A time=00:08:20.95 bitrate=N/A speed=3.56x    frame=12057 fps= 85 q=-0.0 size=N/A time=00:08:22.87 bitrate=N/A speed=3.56x    frame=12103 fps= 85 q=-0.0 size=N/A time=00:08:24.79 bitrate=N/A speed=3.56x    frame=12147 fps= 85 q=-0.0 size=N/A time=00:08:26.63 bitrate=N/A speed=3.56x    frame=12192 fps= 85 q=-0.0 size=N/A time=00:08:28.50 bitrate=N/A speed=3.56x    frame=12236 fps= 85 q=-0.0 size=N/A time=00:08:30.34 bitrate=N/A speed=3.56x    frame=12278 fps= 85 q=-0.0 size=N/A time=00:08:32.09 bitrate=N/A speed=3.56x    frame=12323 fps= 85 q=-0.0 size=N/A time=00:08:33.97 bitrate=N/A speed=3.56x    frame=12366 fps= 85 q=-0.0 size=N/A time=00:08:35.76 bitrate=N/A speed=3.56x    frame=12410 fps= 85 q=-0.0 size=N/A time=00:08:37.60 bitrate=N/A speed=3.56x    frame=12454 fps= 85 q=-0.0 size=N/A time=00:08:39.43 bitrate=N/A speed=3.56x    frame=12501 fps= 85 q=-0.0 size=N/A time=00:08:41.39 bitrate=N/A speed=3.56x    frame=12545 fps= 85 q=-0.0 size=N/A time=00:08:43.23 bitrate=N/A speed=3.56x    frame=12590 fps= 85 q=-0.0 size=N/A time=00:08:45.10 bitrate=N/A speed=3.56x    frame=12634 fps= 85 q=-0.0 size=N/A time=00:08:46.94 bitrate=N/A speed=3.56x    frame=12679 fps= 85 q=-0.0 size=N/A time=00:08:48.81 bitrate=N/A speed=3.56x    frame=12725 fps= 85 q=-0.0 size=N/A time=00:08:50.73 bitrate=N/A speed=3.56x    frame=12770 fps= 85 q=-0.0 size=N/A time=00:08:52.61 bitrate=N/A speed=3.56x    frame=12814 fps= 85 q=-0.0 size=N/A time=00:08:54.45 bitrate=N/A speed=3.56x    frame=12860 fps= 85 q=-0.0 size=N/A time=00:08:56.36 bitrate=N/A speed=3.56x    frame=12903 fps= 85 q=-0.0 size=N/A time=00:08:58.16 bitrate=N/A speed=3.56x    frame=12948 fps= 85 q=-0.0 size=N/A time=00:09:00.03 bitrate=N/A speed=3.56x    frame=12995 fps= 85 q=-0.0 size=N/A time=00:09:01.99 bitrate=N/A speed=3.56x    frame=13043 fps= 85 q=-0.0 size=N/A time=00:09:04.00 bitrate=N/A speed=3.56x    frame=13089 fps= 85 q=-0.0 size=N/A time=00:09:05.92 bitrate=N/A speed=3.56x    frame=13134 fps= 85 q=-0.0 size=N/A time=00:09:07.79 bitrate=N/A speed=3.56x    frame=13177 fps= 85 q=-0.0 size=N/A time=00:09:09.59 bitrate=N/A speed=3.56x    frame=13224 fps= 85 q=-0.0 size=N/A time=00:09:11.55 bitrate=N/A speed=3.56x    frame=13267 fps= 85 q=-0.0 size=N/A time=00:09:13.34 bitrate=N/A speed=3.56x    frame=13312 fps= 85 q=-0.0 size=N/A time=00:09:15.22 bitrate=N/A speed=3.56x    frame=13357 fps= 85 q=-0.0 size=N/A time=00:09:17.09 bitrate=N/A speed=3.56x    frame=13402 fps= 85 q=-0.0 size=N/A time=00:09:18.97 bitrate=N/A speed=3.56x    frame=13447 fps= 85 q=-0.0 size=N/A time=00:09:20.85 bitrate=N/A speed=3.56x    frame=13491 fps= 85 q=-0.0 size=N/A time=00:09:22.68 bitrate=N/A speed=3.56x    frame=13537 fps= 85 q=-0.0 size=N/A time=00:09:24.60 bitrate=N/A speed=3.57x    frame=13583 fps= 85 q=-0.0 size=N/A time=00:09:26.52 bitrate=N/A speed=3.57x    frame=13628 fps= 86 q=-0.0 size=N/A time=00:09:28.40 bitrate=N/A speed=3.57x    frame=13671 fps= 85 q=-0.0 size=N/A time=00:09:30.19 bitrate=N/A speed=3.57x    frame=13716 fps= 85 q=-0.0 size=N/A time=00:09:32.07 bitrate=N/A speed=3.57x    frame=13759 fps= 85 q=-0.0 size=N/A time=00:09:33.86 bitrate=N/A speed=3.57x    frame=13806 fps= 86 q=-0.0 size=N/A time=00:09:35.82 bitrate=N/A speed=3.57x    frame=13849 fps= 86 q=-0.0 size=N/A time=00:09:37.61 bitrate=N/A speed=3.57x    frame=13893 fps= 86 q=-0.0 size=N/A time=00:09:39.45 bitrate=N/A speed=3.57x    frame=13936 fps= 85 q=-0.0 size=N/A time=00:09:41.24 bitrate=N/A speed=3.57x    frame=13981 fps= 85 q=-0.0 size=N/A time=00:09:43.12 bitrate=N/A speed=3.57x    frame=14027 fps= 86 q=-0.0 size=N/A time=00:09:45.04 bitrate=N/A speed=3.57x    frame=14072 fps= 86 q=-0.0 size=N/A time=00:09:46.91 bitrate=N/A speed=3.57x    frame=14118 fps= 86 q=-0.0 size=N/A time=00:09:48.83 bitrate=N/A speed=3.57x    frame=14163 fps= 86 q=-0.0 size=N/A time=00:09:50.71 bitrate=N/A speed=3.57x    frame=14209 fps= 86 q=-0.0 size=N/A time=00:09:52.63 bitrate=N/A speed=3.57x    frame=14253 fps= 86 q=-0.0 size=N/A time=00:09:54.46 bitrate=N/A speed=3.57x    frame=14297 fps= 86 q=-0.0 size=N/A time=00:09:56.30 bitrate=N/A speed=3.57x    frame=14344 fps= 86 q=-0.0 size=N/A time=00:09:58.26 bitrate=N/A speed=3.57x    frame=14390 fps= 86 q=-0.0 size=N/A time=00:10:00.18 bitrate=N/A speed=3.57x    frame=14433 fps= 86 q=-0.0 size=N/A time=00:10:01.97 bitrate=N/A speed=3.57x    frame=14481 fps= 86 q=-0.0 size=N/A time=00:10:03.97 bitrate=N/A speed=3.57x    frame=14526 fps= 86 q=-0.0 size=N/A time=00:10:05.85 bitrate=N/A speed=3.57x    frame=14570 fps= 86 q=-0.0 size=N/A time=00:10:07.69 bitrate=N/A speed=3.57x    frame=14614 fps= 86 q=-0.0 size=N/A time=00:10:09.52 bitrate=N/A speed=3.57x    frame=14657 fps= 86 q=-0.0 size=N/A time=00:10:11.31 bitrate=N/A speed=3.57x    frame=14703 fps= 86 q=-0.0 size=N/A time=00:10:13.23 bitrate=N/A speed=3.57x    frame=14747 fps= 86 q=-0.0 size=N/A time=00:10:15.07 bitrate=N/A speed=3.57x    frame=14794 fps= 86 q=-0.0 size=N/A time=00:10:17.03 bitrate=N/A speed=3.57x    frame=14837 fps= 86 q=-0.0 size=N/A time=00:10:18.82 bitrate=N/A speed=3.57x    frame=14884 fps= 86 q=-0.0 size=N/A time=00:10:20.78 bitrate=N/A speed=3.57x    frame=14928 fps= 86 q=-0.0 size=N/A time=00:10:22.62 bitrate=N/A speed=3.57x    frame=14974 fps= 86 q=-0.0 size=N/A time=00:10:24.54 bitrate=N/A speed=3.57x    frame=15020 fps= 86 q=-0.0 size=N/A time=00:10:26.45 bitrate=N/A speed=3.57x    frame=15065 fps= 86 q=-0.0 size=N/A time=00:10:28.33 bitrate=N/A speed=3.57x    frame=15109 fps= 86 q=-0.0 size=N/A time=00:10:30.17 bitrate=N/A speed=3.57x    frame=15157 fps= 86 q=-0.0 size=N/A time=00:10:32.17 bitrate=N/A speed=3.57x    frame=15199 fps= 86 q=-0.0 size=N/A time=00:10:33.92 bitrate=N/A speed=3.57x    frame=15241 fps= 86 q=-0.0 size=N/A time=00:10:35.67 bitrate=N/A speed=3.57x    frame=15285 fps= 86 q=-0.0 size=N/A time=00:10:37.51 bitrate=N/A speed=3.57x    frame=15328 fps= 86 q=-0.0 size=N/A time=00:10:39.30 bitrate=N/A speed=3.57x    frame=15370 fps= 86 q=-0.0 size=N/A time=00:10:41.05 bitrate=N/A speed=3.57x    frame=15414 fps= 86 q=-0.0 size=N/A time=00:10:42.89 bitrate=N/A speed=3.57x    frame=15459 fps= 86 q=-0.0 size=N/A time=00:10:44.76 bitrate=N/A speed=3.57x    frame=15503 fps= 86 q=-0.0 size=N/A time=00:10:46.60 bitrate=N/A speed=3.57x    frame=15548 fps= 86 q=-0.0 size=N/A time=00:10:48.48 bitrate=N/A speed=3.57x    frame=15594 fps= 86 q=-0.0 size=N/A time=00:10:50.39 bitrate=N/A speed=3.57x    frame=15639 fps= 86 q=-0.0 size=N/A time=00:10:52.27 bitrate=N/A speed=3.57x    frame=15681 fps= 86 q=-0.0 size=N/A time=00:10:54.02 bitrate=N/A speed=3.57x    frame=15727 fps= 86 q=-0.0 size=N/A time=00:10:55.94 bitrate=N/A speed=3.57x    frame=15771 fps= 86 q=-0.0 size=N/A time=00:10:57.78 bitrate=N/A speed=3.57x    frame=15817 fps= 86 q=-0.0 size=N/A time=00:10:59.70 bitrate=N/A speed=3.57x    frame=15865 fps= 86 q=-0.0 size=N/A time=00:11:01.70 bitrate=N/A speed=3.57x    frame=15909 fps= 86 q=-0.0 size=N/A time=00:11:03.53 bitrate=N/A speed=3.57x    frame=15952 fps= 86 q=-0.0 size=N/A time=00:11:05.33 bitrate=N/A speed=3.57x    frame=15998 fps= 86 q=-0.0 size=N/A time=00:11:07.24 bitrate=N/A speed=3.57x    frame=16042 fps= 86 q=-0.0 size=N/A time=00:11:09.08 bitrate=N/A speed=3.57x    frame=16086 fps= 86 q=-0.0 size=N/A time=00:11:10.92 bitrate=N/A speed=3.57x    frame=16132 fps= 86 q=-0.0 size=N/A time=00:11:12.83 bitrate=N/A speed=3.57x    frame=16177 fps= 86 q=-0.0 size=N/A time=00:11:14.71 bitrate=N/A speed=3.57x    frame=16222 fps= 86 q=-0.0 size=N/A time=00:11:16.59 bitrate=N/A speed=3.57x    frame=16267 fps= 86 q=-0.0 size=N/A time=00:11:18.46 bitrate=N/A speed=3.57x    frame=16312 fps= 86 q=-0.0 size=N/A time=00:11:20.34 bitrate=N/A speed=3.57x    frame=16354 fps= 86 q=-0.0 size=N/A time=00:11:22.09 bitrate=N/A speed=3.57x    frame=16396 fps= 86 q=-0.0 size=N/A time=00:11:23.84 bitrate=N/A speed=3.57x    frame=16438 fps= 86 q=-0.0 size=N/A time=00:11:25.60 bitrate=N/A speed=3.57x    frame=16481 fps= 86 q=-0.0 size=N/A time=00:11:27.39 bitrate=N/A speed=3.57x    frame=16524 fps= 86 q=-0.0 size=N/A time=00:11:29.18 bitrate=N/A speed=3.57x    frame=16568 fps= 86 q=-0.0 size=N/A time=00:11:31.02 bitrate=N/A speed=3.57x    frame=16611 fps= 86 q=-0.0 size=N/A time=00:11:32.81 bitrate=N/A speed=3.57x    frame=16657 fps= 86 q=-0.0 size=N/A time=00:11:34.73 bitrate=N/A speed=3.57x    frame=16702 fps= 86 q=-0.0 size=N/A time=00:11:36.61 bitrate=N/A speed=3.57x    frame=16747 fps= 86 q=-0.0 size=N/A time=00:11:38.48 bitrate=N/A speed=3.57x    frame=16789 fps= 86 q=-0.0 size=N/A time=00:11:40.24 bitrate=N/A speed=3.57x    frame=16833 fps= 86 q=-0.0 size=N/A time=00:11:42.07 bitrate=N/A speed=3.57x    frame=16874 fps= 86 q=-0.0 size=N/A time=00:11:43.78 bitrate=N/A speed=3.57x    frame=16915 fps= 86 q=-0.0 size=N/A time=00:11:45.49 bitrate=N/A speed=3.57x    frame=16960 fps= 86 q=-0.0 size=N/A time=00:11:47.37 bitrate=N/A speed=3.57x    frame=17004 fps= 86 q=-0.0 size=N/A time=00:11:49.20 bitrate=N/A speed=3.57x    frame=17049 fps= 86 q=-0.0 size=N/A time=00:11:51.08 bitrate=N/A speed=3.57x    frame=17094 fps= 86 q=-0.0 size=N/A time=00:11:52.96 bitrate=N/A speed=3.57x    frame=17135 fps= 86 q=-0.0 size=N/A time=00:11:54.67 bitrate=N/A speed=3.57x    frame=17182 fps= 86 q=-0.0 size=N/A time=00:11:56.63 bitrate=N/A speed=3.57x    frame=17227 fps= 86 q=-0.0 size=N/A time=00:11:58.50 bitrate=N/A speed=3.57x    frame=17273 fps= 86 q=-0.0 size=N/A time=00:12:00.42 bitrate=N/A speed=3.57x    frame=17317 fps= 86 q=-0.0 size=N/A time=00:12:02.26 bitrate=N/A speed=3.57x    frame=17361 fps= 86 q=-0.0 size=N/A time=00:12:04.09 bitrate=N/A speed=3.57x    frame=17405 fps= 86 q=-0.0 size=N/A time=00:12:05.93 bitrate=N/A speed=3.57x    frame=17447 fps= 86 q=-0.0 size=N/A time=00:12:07.68 bitrate=N/A speed=3.57x    frame=17490 fps= 86 q=-0.0 size=N/A time=00:12:09.47 bitrate=N/A speed=3.57x    frame=17535 fps= 86 q=-0.0 size=N/A time=00:12:11.35 bitrate=N/A speed=3.57x    frame=17579 fps= 86 q=-0.0 size=N/A time=00:12:13.19 bitrate=N/A speed=3.57x    frame=17622 fps= 86 q=-0.0 size=N/A time=00:12:14.98 bitrate=N/A speed=3.57x    frame=17667 fps= 86 q=-0.0 size=N/A time=00:12:16.86 bitrate=N/A speed=3.57x    frame=17711 fps= 86 q=-0.0 size=N/A time=00:12:18.69 bitrate=N/A speed=3.57x    frame=17754 fps= 86 q=-0.0 size=N/A time=00:12:20.48 bitrate=N/A speed=3.57x    frame=17798 fps= 86 q=-0.0 size=N/A time=00:12:22.32 bitrate=N/A speed=3.57x    frame=17842 fps= 86 q=-0.0 size=N/A time=00:12:24.16 bitrate=N/A speed=3.57x    frame=17887 fps= 86 q=-0.0 size=N/A time=00:12:26.03 bitrate=N/A speed=3.57x    frame=17929 fps= 86 q=-0.0 size=N/A time=00:12:27.78 bitrate=N/A speed=3.57x    frame=17973 fps= 86 q=-0.0 size=N/A time=00:12:29.62 bitrate=N/A speed=3.57x    frame=18017 fps= 86 q=-0.0 size=N/A time=00:12:31.45 bitrate=N/A speed=3.57x    frame=18061 fps= 86 q=-0.0 size=N/A time=00:12:33.29 bitrate=N/A speed=3.57x    frame=18105 fps= 86 q=-0.0 size=N/A time=00:12:35.12 bitrate=N/A speed=3.57x    frame=18149 fps= 86 q=-0.0 size=N/A time=00:12:36.96 bitrate=N/A speed=3.57x    frame=18195 fps= 86 q=-0.0 size=N/A time=00:12:38.88 bitrate=N/A speed=3.57x    frame=18239 fps= 86 q=-0.0 size=N/A time=00:12:40.71 bitrate=N/A speed=3.57x    frame=18287 fps= 86 q=-0.0 size=N/A time=00:12:42.72 bitrate=N/A speed=3.57x    frame=18329 fps= 86 q=-0.0 size=N/A time=00:12:44.47 bitrate=N/A speed=3.57x    frame=18375 fps= 86 q=-0.0 size=N/A time=00:12:46.39 bitrate=N/A speed=3.57x    frame=18418 fps= 86 q=-0.0 size=N/A time=00:12:48.18 bitrate=N/A speed=3.57x    frame=18460 fps= 86 q=-0.0 size=N/A time=00:12:49.93 bitrate=N/A speed=3.57x    frame=18505 fps= 86 q=-0.0 size=N/A time=00:12:51.81 bitrate=N/A speed=3.57x    frame=18548 fps= 86 q=-0.0 size=N/A time=00:12:53.60 bitrate=N/A speed=3.57x    frame=18592 fps= 86 q=-0.0 size=N/A time=00:12:55.44 bitrate=N/A speed=3.57x    frame=18636 fps= 86 q=-0.0 size=N/A time=00:12:57.27 bitrate=N/A speed=3.57x    frame=18680 fps= 86 q=-0.0 size=N/A time=00:12:59.11 bitrate=N/A speed=3.57x    frame=18726 fps= 86 q=-0.0 size=N/A time=00:13:01.03 bitrate=N/A speed=3.57x    frame=18770 fps= 86 q=-0.0 size=N/A time=00:13:02.86 bitrate=N/A speed=3.57x    frame=18813 fps= 86 q=-0.0 size=N/A time=00:13:04.65 bitrate=N/A speed=3.57x    frame=18859 fps= 86 q=-0.0 size=N/A time=00:13:06.57 bitrate=N/A speed=3.57x    frame=18902 fps= 86 q=-0.0 size=N/A time=00:13:08.37 bitrate=N/A speed=3.57x    frame=18946 fps= 86 q=-0.0 size=N/A time=00:13:10.20 bitrate=N/A speed=3.57x    frame=18991 fps= 86 q=-0.0 size=N/A time=00:13:12.08 bitrate=N/A speed=3.57x    frame=19037 fps= 86 q=-0.0 size=N/A time=00:13:14.00 bitrate=N/A speed=3.57x    frame=19078 fps= 86 q=-0.0 size=N/A time=00:13:15.71 bitrate=N/A speed=3.57x    frame=19124 fps= 86 q=-0.0 size=N/A time=00:13:17.63 bitrate=N/A speed=3.57x    frame=19169 fps= 86 q=-0.0 size=N/A time=00:13:19.50 bitrate=N/A speed=3.57x    frame=19213 fps= 86 q=-0.0 size=N/A time=00:13:21.34 bitrate=N/A speed=3.57x    frame=19259 fps= 86 q=-0.0 size=N/A time=00:13:23.26 bitrate=N/A speed=3.57x    frame=19300 fps= 86 q=-0.0 size=N/A time=00:13:24.97 bitrate=N/A speed=3.57x    frame=19344 fps= 86 q=-0.0 size=N/A time=00:13:26.80 bitrate=N/A speed=3.57x    frame=19393 fps= 86 q=-0.0 size=N/A time=00:13:28.84 bitrate=N/A speed=3.57x    frame=19437 fps= 86 q=-0.0 size=N/A time=00:13:30.68 bitrate=N/A speed=3.57x    frame=19480 fps= 86 q=-0.0 size=N/A time=00:13:32.47 bitrate=N/A speed=3.57x    frame=19526 fps= 86 q=-0.0 size=N/A time=00:13:34.39 bitrate=N/A speed=3.57x    frame=19569 fps= 86 q=-0.0 size=N/A time=00:13:36.19 bitrate=N/A speed=3.57x    frame=19615 fps= 86 q=-0.0 size=N/A time=00:13:38.10 bitrate=N/A speed=3.57x    frame=19661 fps= 86 q=-0.0 size=N/A time=00:13:40.02 bitrate=N/A speed=3.57x    frame=19705 fps= 86 q=-0.0 size=N/A time=00:13:41.86 bitrate=N/A speed=3.57x    frame=19750 fps= 86 q=-0.0 size=N/A time=00:13:43.73 bitrate=N/A speed=3.57x    frame=19794 fps= 86 q=-0.0 size=N/A time=00:13:45.57 bitrate=N/A speed=3.57x    frame=19840 fps= 86 q=-0.0 size=N/A time=00:13:47.49 bitrate=N/A speed=3.57x    frame=19884 fps= 86 q=-0.0 size=N/A time=00:13:49.32 bitrate=N/A speed=3.57x    frame=19930 fps= 86 q=-0.0 size=N/A time=00:13:51.24 bitrate=N/A speed=3.57x    frame=19975 fps= 86 q=-0.0 size=N/A time=00:13:53.12 bitrate=N/A speed=3.57x    frame=20023 fps= 86 q=-0.0 size=N/A time=00:13:55.12 bitrate=N/A speed=3.57x    frame=20065 fps= 86 q=-0.0 size=N/A time=00:13:56.87 bitrate=N/A speed=3.57x    frame=20112 fps= 86 q=-0.0 size=N/A time=00:13:58.83 bitrate=N/A speed=3.57x    frame=20157 fps= 86 q=-0.0 size=N/A time=00:14:00.71 bitrate=N/A speed=3.57x    frame=20203 fps= 86 q=-0.0 size=N/A time=00:14:02.63 bitrate=N/A speed=3.57x    frame=20249 fps= 86 q=-0.0 size=N/A time=00:14:04.55 bitrate=N/A speed=3.57x    frame=20293 fps= 86 q=-0.0 size=N/A time=00:14:06.38 bitrate=N/A speed=3.57x    frame=20335 fps= 86 q=-0.0 size=N/A time=00:14:08.13 bitrate=N/A speed=3.57x    frame=20379 fps= 86 q=-0.0 size=N/A time=00:14:09.97 bitrate=N/A speed=3.57x    frame=20424 fps= 86 q=-0.0 size=N/A time=00:14:11.85 bitrate=N/A speed=3.57x    frame=20471 fps= 86 q=-0.0 size=N/A time=00:14:13.81 bitrate=N/A speed=3.57x    frame=20515 fps= 86 q=-0.0 size=N/A time=00:14:15.64 bitrate=N/A speed=3.57x    frame=20559 fps= 86 q=-0.0 size=N/A time=00:14:17.52 bitrate=N/A speed=3.57x    frame=20605 fps= 86 q=-0.0 size=N/A time=00:14:19.40 bitrate=N/A speed=3.57x    frame=20651 fps= 86 q=-0.0 size=N/A time=00:14:21.31 bitrate=N/A speed=3.57x    frame=20692 fps= 86 q=-0.0 size=N/A time=00:14:23.02 bitrate=N/A speed=3.57x    frame=20737 fps= 86 q=-0.0 size=N/A time=00:14:24.90 bitrate=N/A speed=3.57x    frame=20782 fps= 86 q=-0.0 size=N/A time=00:14:26.78 bitrate=N/A speed=3.57x    frame=20828 fps= 86 q=-0.0 size=N/A time=00:14:28.70 bitrate=N/A speed=3.57x    frame=20871 fps= 86 q=-0.0 size=N/A time=00:14:30.49 bitrate=N/A speed=3.57x    frame=20917 fps= 86 q=-0.0 size=N/A time=00:14:32.41 bitrate=N/A speed=3.58x    frame=20964 fps= 86 q=-0.0 size=N/A time=00:14:34.37 bitrate=N/A speed=3.58x    frame=21006 fps= 86 q=-0.0 size=N/A time=00:14:36.12 bitrate=N/A speed=3.58x    frame=21051 fps= 86 q=-0.0 size=N/A time=00:14:38.00 bitrate=N/A speed=3.58x    frame=21093 fps= 86 q=-0.0 size=N/A time=00:14:39.75 bitrate=N/A speed=3.57x    frame=21141 fps= 86 q=-0.0 size=N/A time=00:14:41.75 bitrate=N/A speed=3.58x    frame=21183 fps= 86 q=-0.0 size=N/A time=00:14:43.50 bitrate=N/A speed=3.58x    frame=21228 fps= 86 q=-0.0 size=N/A time=00:14:45.38 bitrate=N/A speed=3.58x    frame=21271 fps= 86 q=-0.0 size=N/A time=00:14:47.17 bitrate=N/A speed=3.58x    frame=21318 fps= 86 q=-0.0 size=N/A time=00:14:49.13 bitrate=N/A speed=3.58x    frame=21365 fps= 86 q=-0.0 size=N/A time=00:14:51.09 bitrate=N/A speed=3.58x    frame=21409 fps= 86 q=-0.0 size=N/A time=00:14:52.93 bitrate=N/A speed=3.58x    frame=21457 fps= 86 q=-0.0 size=N/A time=00:14:54.93 bitrate=N/A speed=3.58x    frame=21504 fps= 86 q=-0.0 size=N/A time=00:14:56.89 bitrate=N/A speed=3.58x    frame=21550 fps= 86 q=-0.0 size=N/A time=00:14:58.81 bitrate=N/A speed=3.58x    frame=21594 fps= 86 q=-0.0 size=N/A time=00:15:00.64 bitrate=N/A speed=3.58x    frame=21638 fps= 86 q=-0.0 size=N/A time=00:15:02.48 bitrate=N/A speed=3.58x    frame=21681 fps= 86 q=-0.0 size=N/A time=00:15:04.27 bitrate=N/A speed=3.58x    frame=21725 fps= 86 q=-0.0 size=N/A time=00:15:06.11 bitrate=N/A speed=3.58x    frame=21770 fps= 86 q=-0.0 size=N/A time=00:15:07.99 bitrate=N/A speed=3.58x    frame=21816 fps= 86 q=-0.0 size=N/A time=00:15:09.90 bitrate=N/A speed=3.58x    frame=21859 fps= 86 q=-0.0 size=N/A time=00:15:11.70 bitrate=N/A speed=3.58x    frame=21905 fps= 86 q=-0.0 size=N/A time=00:15:13.62 bitrate=N/A speed=3.58x    frame=21951 fps= 86 q=-0.0 size=N/A time=00:15:15.53 bitrate=N/A speed=3.58x    frame=21993 fps= 86 q=-0.0 size=N/A time=00:15:17.29 bitrate=N/A speed=3.58x    frame=22037 fps= 86 q=-0.0 size=N/A time=00:15:19.12 bitrate=N/A speed=3.58x    frame=22083 fps= 86 q=-0.0 size=N/A time=00:15:21.04 bitrate=N/A speed=3.58x    frame=22127 fps= 86 q=-0.0 size=N/A time=00:15:22.88 bitrate=N/A speed=3.58x    frame=22169 fps= 86 q=-0.0 size=N/A time=00:15:24.63 bitrate=N/A speed=3.58x    frame=22213 fps= 86 q=-0.0 size=N/A time=00:15:26.46 bitrate=N/A speed=3.58x    frame=22259 fps= 86 q=-0.0 size=N/A time=00:15:28.38 bitrate=N/A speed=3.58x    frame=22303 fps= 86 q=-0.0 size=N/A time=00:15:30.22 bitrate=N/A speed=3.58x    frame=22347 fps= 86 q=-0.0 size=N/A time=00:15:32.05 bitrate=N/A speed=3.58x    frame=22392 fps= 86 q=-0.0 size=N/A time=00:15:33.93 bitrate=N/A speed=3.58x    frame=22436 fps= 86 q=-0.0 size=N/A time=00:15:35.76 bitrate=N/A speed=3.58x    frame=22480 fps= 86 q=-0.0 size=N/A time=00:15:37.60 bitrate=N/A speed=3.58x    frame=22524 fps= 86 q=-0.0 size=N/A time=00:15:39.43 bitrate=N/A speed=3.58x    frame=22569 fps= 86 q=-0.0 size=N/A time=00:15:41.31 bitrate=N/A speed=3.58x    frame=22614 fps= 86 q=-0.0 size=N/A time=00:15:43.19 bitrate=N/A speed=3.58x    frame=22661 fps= 86 q=-0.0 size=N/A time=00:15:45.15 bitrate=N/A speed=3.58x    frame=22706 fps= 86 q=-0.0 size=N/A time=00:15:47.02 bitrate=N/A speed=3.58x    frame=22751 fps= 86 q=-0.0 size=N/A time=00:15:48.90 bitrate=N/A speed=3.58x    frame=22795 fps= 86 q=-0.0 size=N/A time=00:15:50.74 bitrate=N/A speed=3.58x    frame=22840 fps= 86 q=-0.0 size=N/A time=00:15:52.61 bitrate=N/A speed=3.58x    frame=22882 fps= 86 q=-0.0 size=N/A time=00:15:54.37 bitrate=N/A speed=3.58x    frame=22928 fps= 86 q=-0.0 size=N/A time=00:15:56.28 bitrate=N/A speed=3.58x    frame=22972 fps= 86 q=-0.0 size=N/A time=00:15:58.12 bitrate=N/A speed=3.58x    frame=23016 fps= 86 q=-0.0 size=N/A time=00:15:59.95 bitrate=N/A speed=3.58x    frame=23060 fps= 86 q=-0.0 size=N/A time=00:16:01.79 bitrate=N/A speed=3.58x    frame=23107 fps= 86 q=-0.0 size=N/A time=00:16:03.75 bitrate=N/A speed=3.58x    frame=23151 fps= 86 q=-0.0 size=N/A time=00:16:05.58 bitrate=N/A speed=3.58x    frame=23196 fps= 86 q=-0.0 size=N/A time=00:16:07.46 bitrate=N/A speed=3.58x    frame=23240 fps= 86 q=-0.0 size=N/A time=00:16:09.30 bitrate=N/A speed=3.58x    frame=23287 fps= 86 q=-0.0 size=N/A time=00:16:11.26 bitrate=N/A speed=3.58x    frame=23332 fps= 86 q=-0.0 size=N/A time=00:16:13.13 bitrate=N/A speed=3.58x    frame=23376 fps= 86 q=-0.0 size=N/A time=00:16:14.97 bitrate=N/A speed=3.58x    frame=23416 fps= 86 q=-0.0 size=N/A time=00:16:16.64 bitrate=N/A speed=3.58x    frame=23459 fps= 86 q=-0.0 size=N/A time=00:16:18.43 bitrate=N/A speed=3.58x    frame=23502 fps= 86 q=-0.0 size=N/A time=00:16:20.22 bitrate=N/A speed=3.58x    frame=23546 fps= 86 q=-0.0 size=N/A time=00:16:22.06 bitrate=N/A speed=3.58x    frame=23589 fps= 86 q=-0.0 size=N/A time=00:16:23.85 bitrate=N/A speed=3.58x    frame=23632 fps= 86 q=-0.0 size=N/A time=00:16:25.65 bitrate=N/A speed=3.58x    frame=23677 fps= 86 q=-0.0 size=N/A time=00:16:27.52 bitrate=N/A speed=3.58x    frame=23721 fps= 86 q=-0.0 size=N/A time=00:16:29.36 bitrate=N/A speed=3.58x    frame=23763 fps= 86 q=-0.0 size=N/A time=00:16:31.11 bitrate=N/A speed=3.58x    frame=23809 fps= 86 q=-0.0 size=N/A time=00:16:33.03 bitrate=N/A speed=3.58x    frame=23854 fps= 86 q=-0.0 size=N/A time=00:16:34.91 bitrate=N/A speed=3.58x    frame=23897 fps= 86 q=-0.0 size=N/A time=00:16:36.70 bitrate=N/A speed=3.58x    frame=23941 fps= 86 q=-0.0 size=N/A time=00:16:38.53 bitrate=N/A speed=3.58x    frame=23988 fps= 86 q=-0.0 size=N/A time=00:16:40.49 bitrate=N/A speed=3.58x    frame=24030 fps= 86 q=-0.0 size=N/A time=00:16:42.25 bitrate=N/A speed=3.58x    frame=24073 fps= 86 q=-0.0 size=N/A time=00:16:44.04 bitrate=N/A speed=3.58x    frame=24116 fps= 86 q=-0.0 size=N/A time=00:16:45.83 bitrate=N/A speed=3.58x    frame=24159 fps= 86 q=-0.0 size=N/A time=00:16:47.63 bitrate=N/A speed=3.58x    frame=24203 fps= 86 q=-0.0 size=N/A time=00:16:49.46 bitrate=N/A speed=3.58x    frame=24244 fps= 86 q=-0.0 size=N/A time=00:16:51.17 bitrate=N/A speed=3.58x    frame=24289 fps= 86 q=-0.0 size=N/A time=00:16:53.05 bitrate=N/A speed=3.58x    frame=24331 fps= 86 q=-0.0 size=N/A time=00:16:54.80 bitrate=N/A speed=3.58x    frame=24375 fps= 86 q=-0.0 size=N/A time=00:16:56.64 bitrate=N/A speed=3.58x    frame=24418 fps= 86 q=-0.0 size=N/A time=00:16:58.43 bitrate=N/A speed=3.58x    frame=24459 fps= 86 q=-0.0 size=N/A time=00:17:00.14 bitrate=N/A speed=3.58x    frame=24501 fps= 86 q=-0.0 size=N/A time=00:17:01.89 bitrate=N/A speed=3.58x    frame=24542 fps= 86 q=-0.0 size=N/A time=00:17:03.60 bitrate=N/A speed=3.57x    frame=24585 fps= 86 q=-0.0 size=N/A time=00:17:05.39 bitrate=N/A speed=3.57x    frame=24629 fps= 86 q=-0.0 size=N/A time=00:17:07.23 bitrate=N/A speed=3.57x    frame=24672 fps= 86 q=-0.0 size=N/A time=00:17:09.02 bitrate=N/A speed=3.57x    frame=24713 fps= 86 q=-0.0 size=N/A time=00:17:10.73 bitrate=N/A speed=3.57x    frame=24759 fps= 86 q=-0.0 size=N/A time=00:17:12.65 bitrate=N/A speed=3.57x    frame=24800 fps= 86 q=-0.0 size=N/A time=00:17:14.36 bitrate=N/A speed=3.57x    frame=24845 fps= 86 q=-0.0 size=N/A time=00:17:16.24 bitrate=N/A speed=3.57x    frame=24892 fps= 86 q=-0.0 size=N/A time=00:17:18.20 bitrate=N/A speed=3.57x    frame=24935 fps= 86 q=-0.0 size=N/A time=00:17:19.99 bitrate=N/A speed=3.57x    frame=24980 fps= 86 q=-0.0 size=N/A time=00:17:21.87 bitrate=N/A speed=3.57x    frame=25024 fps= 86 q=-0.0 size=N/A time=00:17:23.70 bitrate=N/A speed=3.57x    frame=25064 fps= 86 q=-0.0 size=N/A time=00:17:25.37 bitrate=N/A speed=3.57x    frame=25108 fps= 86 q=-0.0 size=N/A time=00:17:27.21 bitrate=N/A speed=3.57x    frame=25152 fps= 86 q=-0.0 size=N/A time=00:17:29.04 bitrate=N/A speed=3.57x    frame=25196 fps= 86 q=-0.0 size=N/A time=00:17:30.88 bitrate=N/A speed=3.57x    frame=25239 fps= 86 q=-0.0 size=N/A time=00:17:32.67 bitrate=N/A speed=3.57x    frame=25282 fps= 86 q=-0.0 size=N/A time=00:17:34.47 bitrate=N/A speed=3.57x    frame=25327 fps= 86 q=-0.0 size=N/A time=00:17:36.34 bitrate=N/A speed=3.57x    frame=25373 fps= 86 q=-0.0 size=N/A time=00:17:38.26 bitrate=N/A speed=3.57x    frame=25416 fps= 86 q=-0.0 size=N/A time=00:17:40.05 bitrate=N/A speed=3.57x    frame=25462 fps= 86 q=-0.0 size=N/A time=00:17:41.97 bitrate=N/A speed=3.57x    frame=25506 fps= 86 q=-0.0 size=N/A time=00:17:43.81 bitrate=N/A speed=3.57x    frame=25549 fps= 86 q=-0.0 size=N/A time=00:17:45.60 bitrate=N/A speed=3.57x    frame=25592 fps= 86 q=-0.0 size=N/A time=00:17:47.39 bitrate=N/A speed=3.57x    frame=25639 fps= 86 q=-0.0 size=N/A time=00:17:49.35 bitrate=N/A speed=3.57x    frame=25682 fps= 86 q=-0.0 size=N/A time=00:17:51.15 bitrate=N/A speed=3.57x    frame=25727 fps= 86 q=-0.0 size=N/A time=00:17:53.03 bitrate=N/A speed=3.57x    frame=25770 fps= 86 q=-0.0 size=N/A time=00:17:54.82 bitrate=N/A speed=3.57x    frame=25813 fps= 86 q=-0.0 size=N/A time=00:17:56.61 bitrate=N/A speed=3.57x    frame=25857 fps= 86 q=-0.0 size=N/A time=00:17:58.45 bitrate=N/A speed=3.57x    frame=25902 fps= 86 q=-0.0 size=N/A time=00:18:00.32 bitrate=N/A speed=3.57x    frame=25945 fps= 86 q=-0.0 size=N/A time=00:18:02.12 bitrate=N/A speed=3.57x    frame=25992 fps= 86 q=-0.0 size=N/A time=00:18:04.08 bitrate=N/A speed=3.57x    frame=26035 fps= 86 q=-0.0 size=N/A time=00:18:05.87 bitrate=N/A speed=3.57x    frame=26082 fps= 86 q=-0.0 size=N/A time=00:18:07.83 bitrate=N/A speed=3.57x    frame=26126 fps= 86 q=-0.0 size=N/A time=00:18:09.67 bitrate=N/A speed=3.57x    frame=26169 fps= 86 q=-0.0 size=N/A time=00:18:11.46 bitrate=N/A speed=3.57x    frame=26214 fps= 86 q=-0.0 size=N/A time=00:18:13.34 bitrate=N/A speed=3.57x    frame=26256 fps= 86 q=-0.0 size=N/A time=00:18:15.09 bitrate=N/A speed=3.57x    frame=26302 fps= 86 q=-0.0 size=N/A time=00:18:17.01 bitrate=N/A speed=3.57x    frame=26345 fps= 86 q=-0.0 size=N/A time=00:18:18.80 bitrate=N/A speed=3.57x    frame=26387 fps= 86 q=-0.0 size=N/A time=00:18:20.55 bitrate=N/A speed=3.57x    frame=26429 fps= 86 q=-0.0 size=N/A time=00:18:22.30 bitrate=N/A speed=3.57x    frame=26475 fps= 86 q=-0.0 size=N/A time=00:18:24.22 bitrate=N/A speed=3.57x    frame=26518 fps= 86 q=-0.0 size=N/A time=00:18:26.02 bitrate=N/A speed=3.57x    frame=26564 fps= 86 q=-0.0 size=N/A time=00:18:27.94 bitrate=N/A speed=3.57x    frame=26606 fps= 86 q=-0.0 size=N/A time=00:18:29.69 bitrate=N/A speed=3.57x    frame=26651 fps= 86 q=-0.0 size=N/A time=00:18:31.56 bitrate=N/A speed=3.57x    frame=26696 fps= 86 q=-0.0 size=N/A time=00:18:33.44 bitrate=N/A speed=3.57x    frame=26739 fps= 86 q=-0.0 size=N/A time=00:18:35.23 bitrate=N/A speed=3.57x    frame=26784 fps= 86 q=-0.0 size=N/A time=00:18:37.11 bitrate=N/A speed=3.57x    frame=26828 fps= 86 q=-0.0 size=N/A time=00:18:38.95 bitrate=N/A speed=3.57x    frame=26871 fps= 86 q=-0.0 size=N/A time=00:18:40.74 bitrate=N/A speed=3.57x    frame=26915 fps= 86 q=-0.0 size=N/A time=00:18:42.57 bitrate=N/A speed=3.57x    frame=26961 fps= 86 q=-0.0 size=N/A time=00:18:44.49 bitrate=N/A speed=3.57x    frame=27001 fps= 86 q=-0.0 size=N/A time=00:18:46.16 bitrate=N/A speed=3.57x    frame=27043 fps= 86 q=-0.0 size=N/A time=00:18:47.91 bitrate=N/A speed=3.57x    frame=27086 fps= 86 q=-0.0 size=N/A time=00:18:49.71 bitrate=N/A speed=3.57x    frame=27130 fps= 86 q=-0.0 size=N/A time=00:18:51.54 bitrate=N/A speed=3.57x    frame=27173 fps= 86 q=-0.0 size=N/A time=00:18:53.34 bitrate=N/A speed=3.57x    frame=27216 fps= 86 q=-0.0 size=N/A time=00:18:55.13 bitrate=N/A speed=3.57x    frame=27259 fps= 86 q=-0.0 size=N/A time=00:18:56.92 bitrate=N/A speed=3.57x    frame=27300 fps= 86 q=-0.0 size=N/A time=00:18:58.63 bitrate=N/A speed=3.57x    frame=27343 fps= 86 q=-0.0 size=N/A time=00:19:00.43 bitrate=N/A speed=3.57x    frame=27383 fps= 86 q=-0.0 size=N/A time=00:19:02.09 bitrate=N/A speed=3.57x    frame=27430 fps= 86 q=-0.0 size=N/A time=00:19:04.05 bitrate=N/A speed=3.57x    frame=27473 fps= 86 q=-0.0 size=N/A time=00:19:05.85 bitrate=N/A speed=3.57x    frame=27514 fps= 86 q=-0.0 size=N/A time=00:19:07.56 bitrate=N/A speed=3.57x    frame=27560 fps= 86 q=-0.0 size=N/A time=00:19:09.48 bitrate=N/A speed=3.57x    frame=27603 fps= 86 q=-0.0 size=N/A time=00:19:11.27 bitrate=N/A speed=3.57x    frame=27646 fps= 86 q=-0.0 size=N/A time=00:19:13.06 bitrate=N/A speed=3.57x    frame=27693 fps= 86 q=-0.0 size=N/A time=00:19:15.02 bitrate=N/A speed=3.57x    frame=27738 fps= 86 q=-0.0 size=N/A time=00:19:16.90 bitrate=N/A speed=3.57x    frame=27783 fps= 86 q=-0.0 size=N/A time=00:19:18.78 bitrate=N/A speed=3.57x    frame=27829 fps= 86 q=-0.0 size=N/A time=00:19:20.70 bitrate=N/A speed=3.57x    frame=27872 fps= 86 q=-0.0 size=N/A time=00:19:22.49 bitrate=N/A speed=3.57x    frame=27914 fps= 86 q=-0.0 size=N/A time=00:19:24.24 bitrate=N/A speed=3.57x    frame=27959 fps= 86 q=-0.0 size=N/A time=00:19:26.12 bitrate=N/A speed=3.57x    frame=28002 fps= 86 q=-0.0 size=N/A time=00:19:27.91 bitrate=N/A speed=3.57x    frame=28046 fps= 86 q=-0.0 size=N/A time=00:19:29.75 bitrate=N/A speed=3.57x    frame=28089 fps= 86 q=-0.0 size=N/A time=00:19:31.54 bitrate=N/A speed=3.57x    frame=28132 fps= 86 q=-0.0 size=N/A time=00:19:33.33 bitrate=N/A speed=3.57x    frame=28175 fps= 86 q=-0.0 size=N/A time=00:19:35.13 bitrate=N/A speed=3.57x    frame=28218 fps= 86 q=-0.0 size=N/A time=00:19:36.92 bitrate=N/A speed=3.57x    frame=28261 fps= 86 q=-0.0 size=N/A time=00:19:38.71 bitrate=N/A speed=3.57x    frame=28302 fps= 86 q=-0.0 size=N/A time=00:19:40.42 bitrate=N/A speed=3.57x    frame=28343 fps= 86 q=-0.0 size=N/A time=00:19:42.13 bitrate=N/A speed=3.57x    frame=28387 fps= 86 q=-0.0 size=N/A time=00:19:43.97 bitrate=N/A speed=3.57x    frame=28431 fps= 86 q=-0.0 size=N/A time=00:19:45.80 bitrate=N/A speed=3.57x    frame=28476 fps= 86 q=-0.0 size=N/A time=00:19:47.68 bitrate=N/A speed=3.57x    frame=28522 fps= 86 q=-0.0 size=N/A time=00:19:49.60 bitrate=N/A speed=3.57x    frame=28565 fps= 86 q=-0.0 size=N/A time=00:19:51.39 bitrate=N/A speed=3.57x    frame=28606 fps= 86 q=-0.0 size=N/A time=00:19:53.10 bitrate=N/A speed=3.57x    frame=28653 fps= 86 q=-0.0 size=N/A time=00:19:55.06 bitrate=N/A speed=3.57x    frame=28696 fps= 86 q=-0.0 size=N/A time=00:19:56.86 bitrate=N/A speed=3.57x    frame=28741 fps= 86 q=-0.0 size=N/A time=00:19:58.73 bitrate=N/A speed=3.57x    frame=28785 fps= 86 q=-0.0 size=N/A time=00:20:00.57 bitrate=N/A speed=3.57x    frame=28831 fps= 86 q=-0.0 size=N/A time=00:20:02.49 bitrate=N/A speed=3.57x    frame=28875 fps= 86 q=-0.0 size=N/A time=00:20:04.32 bitrate=N/A speed=3.57x    frame=28920 fps= 86 q=-0.0 size=N/A time=00:20:06.20 bitrate=N/A speed=3.57x    frame=28965 fps= 86 q=-0.0 size=N/A time=00:20:08.08 bitrate=N/A speed=3.57x    frame=29009 fps= 86 q=-0.0 size=N/A time=00:20:09.91 bitrate=N/A speed=3.57x    frame=29052 fps= 86 q=-0.0 size=N/A time=00:20:11.71 bitrate=N/A speed=3.57x    frame=29094 fps= 86 q=-0.0 size=N/A time=00:20:13.46 bitrate=N/A speed=3.57x    frame=29137 fps= 86 q=-0.0 size=N/A time=00:20:15.25 bitrate=N/A speed=3.57x    frame=29182 fps= 86 q=-0.0 size=N/A time=00:20:17.13 bitrate=N/A speed=3.57x    frame=29226 fps= 86 q=-0.0 size=N/A time=00:20:18.96 bitrate=N/A speed=3.57x    frame=29271 fps= 86 q=-0.0 size=N/A time=00:20:20.84 bitrate=N/A speed=3.57x    frame=29314 fps= 86 q=-0.0 size=N/A time=00:20:22.63 bitrate=N/A speed=3.57x    frame=29357 fps= 86 q=-0.0 size=N/A time=00:20:24.43 bitrate=N/A speed=3.57x    frame=29400 fps= 86 q=-0.0 size=N/A time=00:20:26.22 bitrate=N/A speed=3.57x    frame=29444 fps= 86 q=-0.0 size=N/A time=00:20:28.06 bitrate=N/A speed=3.57x    frame=29489 fps= 86 q=-0.0 size=N/A time=00:20:29.93 bitrate=N/A speed=3.57x    frame=29535 fps= 86 q=-0.0 size=N/A time=00:20:31.85 bitrate=N/A speed=3.57x    frame=29583 fps= 86 q=-0.0 size=N/A time=00:20:33.85 bitrate=N/A speed=3.57x    frame=29626 fps= 86 q=-0.0 size=N/A time=00:20:35.65 bitrate=N/A speed=3.57x    frame=29672 fps= 86 q=-0.0 size=N/A time=00:20:37.56 bitrate=N/A speed=3.57x    frame=29717 fps= 86 q=-0.0 size=N/A time=00:20:39.44 bitrate=N/A speed=3.57x    frame=29762 fps= 86 q=-0.0 size=N/A time=00:20:41.32 bitrate=N/A speed=3.57x    frame=29808 fps= 86 q=-0.0 size=N/A time=00:20:43.24 bitrate=N/A speed=3.57x    frame=29854 fps= 86 q=-0.0 size=N/A time=00:20:45.16 bitrate=N/A speed=3.57x    frame=29900 fps= 86 q=-0.0 size=N/A time=00:20:47.07 bitrate=N/A speed=3.57x    frame=29945 fps= 86 q=-0.0 size=N/A time=00:20:48.95 bitrate=N/A speed=3.57x    frame=29990 fps= 86 q=-0.0 size=N/A time=00:20:50.83 bitrate=N/A speed=3.57x    frame=30033 fps= 86 q=-0.0 size=N/A time=00:20:52.62 bitrate=N/A speed=3.57x    frame=30081 fps= 86 q=-0.0 size=N/A time=00:20:54.62 bitrate=N/A speed=3.57x    frame=30123 fps= 86 q=-0.0 size=N/A time=00:20:56.38 bitrate=N/A speed=3.57x    frame=30169 fps= 86 q=-0.0 size=N/A time=00:20:58.29 bitrate=N/A speed=3.57x    frame=30210 fps= 86 q=-0.0 size=N/A time=00:21:00.00 bitrate=N/A speed=3.57x    frame=30253 fps= 86 q=-0.0 size=N/A time=00:21:01.80 bitrate=N/A speed=3.57x    frame=30300 fps= 86 q=-0.0 size=N/A time=00:21:03.76 bitrate=N/A speed=3.57x    frame=30345 fps= 86 q=-0.0 size=N/A time=00:21:05.63 bitrate=N/A speed=3.57x    frame=30390 fps= 86 q=-0.0 size=N/A time=00:21:07.51 bitrate=N/A speed=3.57x    frame=30438 fps= 86 q=-0.0 size=N/A time=00:21:09.51 bitrate=N/A speed=3.57x    frame=30482 fps= 86 q=-0.0 size=N/A time=00:21:11.35 bitrate=N/A speed=3.57x    frame=30526 fps= 86 q=-0.0 size=N/A time=00:21:13.18 bitrate=N/A speed=3.57x    frame=30573 fps= 86 q=-0.0 size=N/A time=00:21:15.14 bitrate=N/A speed=3.57x    frame=30618 fps= 86 q=-0.0 size=N/A time=00:21:17.02 bitrate=N/A speed=3.57x    frame=30662 fps= 86 q=-0.0 size=N/A time=00:21:18.86 bitrate=N/A speed=3.57x    frame=30709 fps= 86 q=-0.0 size=N/A time=00:21:20.82 bitrate=N/A speed=3.57x    frame=30754 fps= 86 q=-0.0 size=N/A time=00:21:22.69 bitrate=N/A speed=3.57x    frame=30798 fps= 86 q=-0.0 size=N/A time=00:21:24.53 bitrate=N/A speed=3.57x    frame=30845 fps= 86 q=-0.0 size=N/A time=00:21:26.49 bitrate=N/A speed=3.57x    frame=30890 fps= 86 q=-0.0 size=N/A time=00:21:28.37 bitrate=N/A speed=3.57x    frame=30935 fps= 86 q=-0.0 size=N/A time=00:21:30.24 bitrate=N/A speed=3.57x    frame=30982 fps= 86 q=-0.0 size=N/A time=00:21:32.20 bitrate=N/A speed=3.57x    frame=31027 fps= 86 q=-0.0 size=N/A time=00:21:34.08 bitrate=N/A speed=3.57x    frame=31070 fps= 86 q=-0.0 size=N/A time=00:21:35.87 bitrate=N/A speed=3.57x    frame=31114 fps= 86 q=-0.0 size=N/A time=00:21:37.71 bitrate=N/A speed=3.57x    frame=31159 fps= 86 q=-0.0 size=N/A time=00:21:39.58 bitrate=N/A speed=3.57x    frame=31203 fps= 86 q=-0.0 size=N/A time=00:21:41.42 bitrate=N/A speed=3.57x    frame=31249 fps= 86 q=-0.0 size=N/A time=00:21:43.34 bitrate=N/A speed=3.57x    frame=31293 fps= 86 q=-0.0 size=N/A time=00:21:45.17 bitrate=N/A speed=3.57x    frame=31339 fps= 86 q=-0.0 size=N/A time=00:21:47.09 bitrate=N/A speed=3.57x    frame=31385 fps= 86 q=-0.0 size=N/A time=00:21:49.01 bitrate=N/A speed=3.57x    frame=31431 fps= 86 q=-0.0 size=N/A time=00:21:50.93 bitrate=N/A speed=3.57x    frame=31474 fps= 86 q=-0.0 size=N/A time=00:21:52.72 bitrate=N/A speed=3.57x    frame=31519 fps= 86 q=-0.0 size=N/A time=00:21:54.60 bitrate=N/A speed=3.57x    frame=31565 fps= 86 q=-0.0 size=N/A time=00:21:56.52 bitrate=N/A speed=3.57x    frame=31610 fps= 86 q=-0.0 size=N/A time=00:21:58.40 bitrate=N/A speed=3.57x    frame=31652 fps= 86 q=-0.0 size=N/A time=00:22:00.15 bitrate=N/A speed=3.57x    frame=31699 fps= 86 q=-0.0 size=N/A time=00:22:02.11 bitrate=N/A speed=3.57x    frame=31744 fps= 86 q=-0.0 size=N/A time=00:22:03.98 bitrate=N/A speed=3.57x    frame=31787 fps= 86 q=-0.0 size=N/A time=00:22:05.78 bitrate=N/A speed=3.57x    frame=31830 fps= 86 q=-0.0 size=N/A time=00:22:07.57 bitrate=N/A speed=3.57x    frame=31873 fps= 86 q=-0.0 size=N/A time=00:22:09.36 bitrate=N/A speed=3.57x    frame=31919 fps= 86 q=-0.0 size=N/A time=00:22:11.28 bitrate=N/A speed=3.57x    frame=31965 fps= 86 q=-0.0 size=N/A time=00:22:13.20 bitrate=N/A speed=3.57x    frame=32010 fps= 86 q=-0.0 size=N/A time=00:22:15.08 bitrate=N/A speed=3.57x    frame=32053 fps= 86 q=-0.0 size=N/A time=00:22:16.87 bitrate=N/A speed=3.57x    frame=32099 fps= 86 q=-0.0 size=N/A time=00:22:18.79 bitrate=N/A speed=3.57x    frame=32144 fps= 86 q=-0.0 size=N/A time=00:22:20.67 bitrate=N/A speed=3.57x    frame=32189 fps= 86 q=-0.0 size=N/A time=00:22:22.54 bitrate=N/A speed=3.57x    frame=32232 fps= 86 q=-0.0 size=N/A time=00:22:24.34 bitrate=N/A speed=3.57x    frame=32278 fps= 86 q=-0.0 size=N/A time=00:22:26.26 bitrate=N/A speed=3.57x    frame=32323 fps= 86 q=-0.0 size=N/A time=00:22:28.13 bitrate=N/A speed=3.57x    frame=32368 fps= 86 q=-0.0 size=N/A time=00:22:30.01 bitrate=N/A speed=3.57x    frame=32413 fps= 86 q=-0.0 size=N/A time=00:22:31.89 bitrate=N/A speed=3.57x    frame=32454 fps= 86 q=-0.0 size=N/A time=00:22:33.60 bitrate=N/A speed=3.57x    frame=32498 fps= 86 q=-0.0 size=N/A time=00:22:35.43 bitrate=N/A speed=3.57x    frame=32541 fps= 86 q=-0.0 size=N/A time=00:22:37.23 bitrate=N/A speed=3.57x    frame=32587 fps= 86 q=-0.0 size=N/A time=00:22:39.14 bitrate=N/A speed=3.57x    frame=32629 fps= 86 q=-0.0 size=N/A time=00:22:40.90 bitrate=N/A speed=3.57x    frame=32676 fps= 86 q=-0.0 size=N/A time=00:22:42.86 bitrate=N/A speed=3.57x    frame=32719 fps= 86 q=-0.0 size=N/A time=00:22:44.65 bitrate=N/A speed=3.57x    frame=32762 fps= 86 q=-0.0 size=N/A time=00:22:46.44 bitrate=N/A speed=3.57x    frame=32805 fps= 86 q=-0.0 size=N/A time=00:22:48.24 bitrate=N/A speed=3.57x    frame=32850 fps= 86 q=-0.0 size=N/A time=00:22:50.11 bitrate=N/A speed=3.57x    frame=32895 fps= 86 q=-0.0 size=N/A time=00:22:51.99 bitrate=N/A speed=3.57x    frame=32938 fps= 86 q=-0.0 size=N/A time=00:22:53.78 bitrate=N/A speed=3.57x    frame=32984 fps= 86 q=-0.0 size=N/A time=00:22:55.70 bitrate=N/A speed=3.57x    frame=33027 fps= 86 q=-0.0 size=N/A time=00:22:57.50 bitrate=N/A speed=3.57x    frame=33071 fps= 86 q=-0.0 size=N/A time=00:22:59.33 bitrate=N/A speed=3.57x    frame=33114 fps= 86 q=-0.0 size=N/A time=00:23:01.12 bitrate=N/A speed=3.57x    frame=33155 fps= 86 q=-0.0 size=N/A time=00:23:02.83 bitrate=N/A speed=3.57x    frame=33198 fps= 86 q=-0.0 size=N/A time=00:23:04.63 bitrate=N/A speed=3.57x    frame=33241 fps= 86 q=-0.0 size=N/A time=00:23:06.42 bitrate=N/A speed=3.57x    frame=33284 fps= 86 q=-0.0 size=N/A time=00:23:08.22 bitrate=N/A speed=3.57x    frame=33326 fps= 86 q=-0.0 size=N/A time=00:23:09.97 bitrate=N/A speed=3.57x    frame=33369 fps= 86 q=-0.0 size=N/A time=00:23:11.76 bitrate=N/A speed=3.57x    frame=33412 fps= 86 q=-0.0 size=N/A time=00:23:13.55 bitrate=N/A speed=3.57x    frame=33454 fps= 86 q=-0.0 size=N/A time=00:23:15.31 bitrate=N/A speed=3.57x    frame=33499 fps= 86 q=-0.0 size=N/A time=00:23:17.18 bitrate=N/A speed=3.57x    frame=33542 fps= 86 q=-0.0 size=N/A time=00:23:18.98 bitrate=N/A speed=3.57x    frame=33586 fps= 86 q=-0.0 size=N/A time=00:23:20.81 bitrate=N/A speed=3.57x    frame=33629 fps= 86 q=-0.0 size=N/A time=00:23:22.60 bitrate=N/A speed=3.57x    frame=33669 fps= 86 q=-0.0 size=N/A time=00:23:24.27 bitrate=N/A speed=3.57x    frame=33714 fps= 86 q=-0.0 size=N/A time=00:23:26.15 bitrate=N/A speed=3.57x    frame=33758 fps= 86 q=-0.0 size=N/A time=00:23:27.98 bitrate=N/A speed=3.57x    frame=33800 fps= 86 q=-0.0 size=N/A time=00:23:29.74 bitrate=N/A speed=3.57x    frame=33845 fps= 86 q=-0.0 size=N/A time=00:23:31.61 bitrate=N/A speed=3.57x    frame=33888 fps= 86 q=-0.0 size=N/A time=00:23:33.41 bitrate=N/A speed=3.57x    frame=33933 fps= 86 q=-0.0 size=N/A time=00:23:35.28 bitrate=N/A speed=3.57x    frame=33979 fps= 86 q=-0.0 size=N/A time=00:23:37.20 bitrate=N/A speed=3.57x    frame=34022 fps= 86 q=-0.0 size=N/A time=00:23:39.00 bitrate=N/A speed=3.57x    frame=34067 fps= 86 q=-0.0 size=N/A time=00:23:40.87 bitrate=N/A speed=3.57x    frame=34111 fps= 86 q=-0.0 size=N/A time=00:23:42.71 bitrate=N/A speed=3.57x    frame=34153 fps= 86 q=-0.0 size=N/A time=00:23:44.46 bitrate=N/A speed=3.57x    frame=34196 fps= 86 q=-0.0 size=N/A time=00:23:46.25 bitrate=N/A speed=3.57x    frame=34237 fps= 86 q=-0.0 size=N/A time=00:23:47.96 bitrate=N/A speed=3.57x    frame=34283 fps= 86 q=-0.0 size=N/A time=00:23:49.88 bitrate=N/A speed=3.57x    frame=34325 fps= 86 q=-0.0 size=N/A time=00:23:51.63 bitrate=N/A speed=3.57x    frame=34369 fps= 86 q=-0.0 size=N/A time=00:23:53.47 bitrate=N/A speed=3.57x    frame=34410 fps= 86 q=-0.0 size=N/A time=00:23:55.18 bitrate=N/A speed=3.57x    frame=34455 fps= 86 q=-0.0 size=N/A time=00:23:57.06 bitrate=N/A speed=3.57x    frame=34493 fps= 86 q=-0.0 size=N/A time=00:23:58.64 bitrate=N/A speed=3.57x    frame=34537 fps= 86 q=-0.0 size=N/A time=00:24:00.48 bitrate=N/A speed=3.57x    frame=34578 fps= 86 q=-0.0 size=N/A time=00:24:02.19 bitrate=N/A speed=3.57x    frame=34624 fps= 86 q=-0.0 size=N/A time=00:24:04.10 bitrate=N/A speed=3.57x    frame=34666 fps= 86 q=-0.0 size=N/A time=00:24:05.86 bitrate=N/A speed=3.57x    frame=34710 fps= 86 q=-0.0 size=N/A time=00:24:07.69 bitrate=N/A speed=3.57x    frame=34752 fps= 86 q=-0.0 size=N/A time=00:24:09.44 bitrate=N/A speed=3.57x    frame=34796 fps= 86 q=-0.0 size=N/A time=00:24:11.28 bitrate=N/A speed=3.57x    frame=34838 fps= 86 q=-0.0 size=N/A time=00:24:13.03 bitrate=N/A speed=3.57x    frame=34882 fps= 86 q=-0.0 size=N/A time=00:24:14.87 bitrate=N/A speed=3.57x    [Parsed_libvmaf_10 @ 0000017d6d7e8b80] VMAF score: 95.085433
[out#0/null @ 0000017d6d7ffd40] video:15005KiB audio:273196KiB subtitle:0KiB other streams:0KiB global headers:0KiB muxing overhead: unknown
frame=34921 fps= 85 q=-0.0 Lsize=N/A time=00:24:16.49 bitrate=N/A speed=3.56x    
